<svg xmlns="http://www.w3.org/2000/svg" width="98" height="29" viewBox="0 0 98 29">
    <defs>
        <linearGradient id="ce48d9j51a" x1="-196.061%" x2="193.7%" y1="103%" y2="11%">
            <stop offset="0%" stop-color="#30BAC6"/>
            <stop offset="100%" stop-color="#B6509E"/>
        </linearGradient>
        <linearGradient id="oxhcnz3fzb" x1="-397.831%" x2="116.929%" y1="131%" y2="38%">
            <stop offset="0%" stop-color="#30BAC6"/>
            <stop offset="100%" stop-color="#B6509E"/>
        </linearGradient>
        <linearGradient id="sq86se1a2c" x1="-109.448%" x2="279.329%" y1="93%" y2="0%">
            <stop offset="0%" stop-color="#30BAC6"/>
            <stop offset="100%" stop-color="#B6509E"/>
        </linearGradient>
        <linearGradient id="fanoq59e7d" x1="-4.133%" x2="385.627%" y1="68%" y2="-25%">
            <stop offset="0%" stop-color="#30BAC6"/>
            <stop offset="100%" stop-color="#B6509E"/>
        </linearGradient>
    </defs>
    <g fill="none" fill-rule="evenodd">
        <g fill-rule="nonzero">
            <g>
                <path fill="url(#ce48d9j51a)" d="M60.778 26.327L51.374 3.326c-.075-.21-.114-.43-.117-.653-.019-.47.146-.928.458-1.277.327-.338.783-.516 1.25-.49.35.005.689.12.971.326.294.223.524.52.665.861l8.946 22.503 8.946-22.503c.144-.342.377-.64.674-.86.283-.208.622-.322.971-.327.464-.024.916.155 1.241.49.316.348.483.806.468 1.277-.003.223-.043.443-.117.653l-9.405 23c-.33 1.036-1.276 1.746-2.355 1.768h-.836c-1.08-.022-2.026-.732-2.356-1.767z" transform="translate(-904 -4090) translate(904 4090)"/>
                <path fill="url(#oxhcnz3fzb)" d="M79.848 27.387c-.323-.327-.498-.772-.486-1.233V2.864c-.012-.471.163-.928.486-1.269.316-.338.761-.523 1.222-.508h15.285c.435-.01.854.168 1.15.49.316.301.492.722.486 1.16.013.434-.165.852-.485 1.142-.309.307-.727.477-1.16.471H82.832v8.482h12.156c.436-.01.855.168 1.15.49.313.304.488.723.486 1.16.013.434-.165.852-.485 1.142-.306.305-.72.474-1.15.471H82.831v8.519h13.514c.438-.014.861.165 1.16.49.317.303.494.727.485 1.168.013.434-.165.852-.485 1.142-.31.304-.728.47-1.16.462H81.07c-.46.034-.91-.146-1.222-.49z" transform="translate(-904 -4090) translate(904 4090)"/>
                <path fill="url(#sq86se1a2c)" d="M53.504 25.674l-9.413-23C43.762 1.64 42.821.93 41.744.905h-.827c-1.079.022-2.025.732-2.355 1.767L34.47 12.697h-3.102c-.928.01-1.676.768-1.681 1.703v.018c.005.936.753 1.694 1.681 1.704h1.663l-3.902 9.552c-.074.21-.114.43-.117.653-.018.47.147.928.459 1.277.327.338.782.516 1.25.49.349-.005.688-.12.97-.327.295-.222.524-.519.666-.86l4.307-10.785h2.958c.928-.01 1.676-.768 1.68-1.704v-.045c-.004-.935-.752-1.694-1.68-1.704h-1.6l3.308-8.265 8.946 22.503c.141.341.371.638.665.86.282.208.622.322.971.327.47.03.93-.15 1.259-.49.309-.35.47-.809.45-1.277.01-.223-.026-.446-.109-.653h-.009z" transform="translate(-904 -4090) translate(904 4090)"/>
                <path fill="url(#fanoq59e7d)" d="M25.4 25.674l-9.405-23c-.331-1.04-1.282-1.75-2.365-1.768h-.827c-1.08.022-2.026.732-2.356 1.767l-4.09 10.024H3.255c-.928.01-1.677.768-1.682 1.703v.018c.005.936.754 1.694 1.682 1.704h1.663l-3.902 9.552c-.074.21-.114.43-.117.653-.018.47.146.928.459 1.277.326.338.782.516 1.25.49.349-.005.688-.12.97-.327.294-.222.524-.519.666-.86L8.55 16.122h2.976c.932-.005 1.686-.765 1.69-1.704v-.045c-.004-.939-.758-1.699-1.69-1.704H9.935l3.282-8.265 8.945 22.503c.142.341.372.638.666.86.282.208.621.322.97.327.471.03.93-.15 1.26-.49.308-.35.47-.809.449-1.277.011-.223-.026-.446-.108-.653z" transform="translate(-904 -4090) translate(904 4090)"/>
            </g>
        </g>
    </g>
</svg>
