<svg xmlns="http://www.w3.org/2000/svg" width="158" height="48" viewBox="0 0 158 48">
    <g fill="none" fill-rule="evenodd">
        <g>
            <g>
                <path fill="#000" fill-rule="nonzero" d="M10.147 47.998c-.41 0-.808-.006-1.212-.014-.84-.01-1.676-.079-2.505-.205-.772-.125-1.52-.356-2.22-.687-.693-.329-1.326-.76-1.872-1.277-.555-.51-1.017-1.102-1.367-1.752-.355-.654-.6-1.355-.727-2.08-.139-.777-.213-1.563-.225-2.352C.012 39.367 0 38.485 0 38.485V9.499s.012-.867.02-1.122c.01-.787.085-1.573.222-2.35C.37 5.3.615 4.597.97 3.94 1.682 2.636 2.816 1.573 4.21.905 4.907.575 5.654.344 6.424.22 7.255.094 8.095.026 8.937.016L10.147 0h137.7l1.224.015c.834.01 1.666.077 2.49.205.777.123 1.533.355 2.238.687 1.39.671 2.522 1.733 3.235 3.037.35.651.591 1.35.718 2.069.138.783.217 1.574.232 2.368.004.355.004.737.004 1.117.012.47.012.918.012 1.369V37.13c0 .456 0 .9-.012 1.35 0 .408 0 .78-.005 1.166-.015.78-.092 1.557-.23 2.326-.124.73-.368 1.436-.723 2.096-.353.643-.812 1.23-1.36 1.738-.549.52-1.182.953-1.876 1.284-.704.333-1.457.565-2.234.689-.828.126-1.665.195-2.505.205-.391.008-.803.013-1.202.013L146.4 48l-136.253-.002z" transform="translate(-456 -458) translate(456 458)"/>
                <path fill="#A4C639" d="M28.464 14.98c.05-.067.106-.13.166-.19l2.231-2.237c.736-.737 1.928-.737 2.663 0 .736.737.736 1.933 0 2.67l-1.92 1.925c1.655 1.58 2.659 3.541 3.052 5.86.218 1.283-.187 1.778-1.591 1.766l-20.43.006c-1.495.022-2.02-.53-1.764-1.853.412-2.125 1.28-3.944 2.628-5.415l-2.175-2.18c-.735-.737-.735-1.933 0-2.67.736-.737 1.928-.737 2.664 0l2.23 2.237c.104.103.192.215.266.333.43-.228.883-.438 1.36-.629 3.671-1.468 7.263-1.316 10.62.376zm-10.267 5.516c0 .522-.422.944-.942.944s-.941-.422-.941-.944c0-.521.421-.944.941-.944s.942.423.942.944zm10.068.944c.52 0 .941-.422.941-.944 0-.521-.421-.944-.941-.944s-.942.423-.942.944c0 .522.422.944.942.944z" transform="translate(-456 -458) translate(456 458)"/>
                <path fill="#A4C639" fill-rule="nonzero" d="M12.204 35.197c.496 0 .76-.254.947-.91l.298-.92h2.586l.293.92c.186.639.473.91.97.91.534 0 .884-.316.884-.808 0-.197-.051-.423-.152-.74l-1.696-4.998c-.31-.92-.738-1.282-1.55-1.282-.81 0-1.25.367-1.554 1.282l-1.702 4.999c-.13.378-.18.593-.18.779 0 .452.35.768.856.768zm1.628-3.18l.874-2.92h.09l.862 2.92h-1.826zM20.584 35.191c.597 0 .935-.367.935-1.005v-1.514h1.24c1.763 0 2.844-.943 2.844-2.632 0-1.587-1.065-2.615-2.749-2.615h-1.977c-.88 0-1.217.356-1.217 1.277v5.484c0 .644.332 1.005.924 1.005zm.94-3.908v-2.417h1.054c.76 0 1.183.44 1.183 1.208 0 .893-.428 1.209-1.392 1.209h-.845zM32.428 35.18c.53 0 .896-.361.896-.88 0-.26-.085-.453-.384-.854l-1.926-2.61 1.808-1.96c.248-.27.338-.445.338-.677 0-.457-.355-.819-.817-.819-.265 0-.479.119-.732.396l-2.586 2.818h-.101v-2.22c0-.638-.338-1.005-.936-1.005-.597 0-.93.361-.93 1.005v5.812c0 .633.35 1.005.953 1.005.586 0 .913-.361.913-1.005V32.74l.71-.723 1.87 2.581c.293.407.574.582.924.582z" transform="translate(-456 -458) translate(456 458)"/>
                <path fill="#FAFAFA" fill-rule="nonzero" d="M40.17 11.146V18h2.47c1.102 0 1.935-.307 2.51-.922.546-.595.823-1.43.823-2.505 0-1.085-.268-1.92-.804-2.496-.575-.624-1.408-.931-2.509-.931h-2.49zm1.044.892h1.254c.862 0 1.494.202 1.896.615.384.403.585 1.037.585 1.92 0 .864-.201 1.497-.594 1.91-.402.413-1.044.624-1.906.624h-1.235v-5.069zm8.003.864c-.746 0-1.35.25-1.8.75-.45.489-.67 1.113-.67 1.871 0 .749.22 1.373.66 1.853.46.5 1.064.758 1.81.758.747 0 1.35-.259 1.81-.758.44-.48.661-1.104.661-1.853 0-.758-.23-1.382-.67-1.872-.45-.499-1.054-.749-1.8-.749zm0 .836c.47 0 .834.182 1.102.556.23.317.344.73.344 1.23 0 .489-.114.892-.344 1.218-.268.365-.632.557-1.102.557-.469 0-.833-.192-1.091-.557-.23-.316-.335-.72-.335-1.219 0-.499.105-.912.335-1.229.258-.374.622-.556 1.091-.556zm2.908-.701L53.801 18h.939l1.034-3.715L56.808 18h.938l1.676-4.963h-1.12l-1.044 3.753-1.015-3.753h-.938L54.29 16.79l-1.044-3.753h-1.12zm10.433-.135c-.307 0-.584.058-.833.192-.25.125-.47.308-.661.557v-.614h-1.015V18h1.015v-2.986c.038-.403.182-.72.412-.95.21-.211.469-.307.756-.307.766 0 1.159.422 1.159 1.267V18h1.015v-3.062c0-1.364-.622-2.036-1.848-2.036zm3.123-1.89V18h1.015v-6.989h-1.015zm4.558 1.89c-.747 0-1.35.25-1.8.75-.45.489-.67 1.113-.67 1.871 0 .749.22 1.373.66 1.853.46.5 1.063.758 1.81.758.747 0 1.35-.259 1.81-.758.44-.48.66-1.104.66-1.853 0-.758-.229-1.382-.67-1.872-.45-.499-1.053-.749-1.8-.749zm0 .836c.47 0 .833.182 1.101.556.23.317.345.73.345 1.23 0 .489-.115.892-.345 1.218-.268.365-.632.557-1.1.557-.47 0-.834-.192-1.092-.557-.23-.316-.336-.72-.336-1.219 0-.499.106-.912.336-1.229.258-.374.622-.556 1.091-.556zm5.666-.836c-.613 0-1.11.106-1.475.336-.421.25-.69.653-.794 1.19l1.005.087c.057-.278.201-.48.43-.614.192-.115.451-.173.767-.173.747 0 1.12.346 1.12 1.037v.201l-1.11.03c-.728.018-1.303.162-1.705.45-.44.298-.66.73-.66 1.287 0 .413.153.749.469 1.008.287.259.689.393 1.206.393.44 0 .824-.086 1.15-.24.286-.144.526-.345.717-.595V18h.939v-3.168c0-.605-.153-1.066-.45-1.382-.345-.365-.881-.548-1.609-.548zm1.053 2.804v.288c0 .384-.162.71-.469.97-.306.258-.67.393-1.101.393-.259 0-.47-.067-.623-.192-.162-.125-.239-.279-.239-.47 0-.615.46-.941 1.389-.96l1.043-.03zm5.73-4.695v2.765c-.402-.586-.91-.874-1.513-.874-.709 0-1.274.26-1.676.778-.383.48-.565 1.085-.565 1.814 0 .759.192 1.383.575 1.863.411.518.986.777 1.714.777.67 0 1.187-.25 1.532-.73V18h.948v-6.989h-1.015zm-1.283 2.717c.373 0 .68.144.929.451.249.327.383.759.383 1.296v.087c0 .499-.106.902-.316 1.219-.25.345-.585.528-1.025.528-.498 0-.871-.183-1.101-.538-.201-.307-.297-.73-.297-1.277 0-.547.105-.97.316-1.257.24-.346.613-.509 1.11-.509zM42.363 31.382l.591-1.856c.42-1.295.794-2.512 1.167-3.869h.063c.389 1.342.747 2.574 1.182 3.869l.592 1.856h-3.595zM47.42 36h1.37l-3.906-11.42h-1.416L39.578 36h1.291l1.167-3.604h4.248L47.42 36zm2.904 0h1.26v-6.162c.872-.905 1.51-1.373 2.396-1.373 1.168 0 1.665.718 1.665 2.34V36h1.276v-5.35c0-2.154-.809-3.292-2.567-3.292-1.152 0-2.023.655-2.832 1.45h-.047l-.124-1.232h-1.027V36zm12.253.203c1.027 0 1.93-.546 2.599-1.217h.031L65.331 36h1.043V23.582h-1.26v3.308l.062 1.466c-.763-.624-1.416-.998-2.412-.998-1.93 0-3.657 1.716-3.657 4.446 0 2.808 1.354 4.399 3.47 4.399zm.265-1.077c-1.54 0-2.412-1.263-2.412-3.338 0-1.966 1.105-3.354 2.536-3.354.732 0 1.385.265 2.148.936v4.555c-.747.796-1.463 1.201-2.272 1.201zm6.477.874h1.26v-5.491c.576-1.467 1.447-1.997 2.163-1.997.327 0 .514.047.794.14l.249-1.107c-.28-.14-.53-.187-.887-.187-.95 0-1.805.702-2.381 1.762h-.047l-.124-1.544h-1.027V36zm8.934.203c2.054 0 3.875-1.623 3.875-4.4 0-2.823-1.821-4.445-3.875-4.445-2.054 0-3.86 1.622-3.86 4.446 0 2.776 1.806 4.399 3.86 4.399zm0-1.061c-1.51 0-2.552-1.342-2.552-3.338 0-2.013 1.043-3.37 2.552-3.37 1.51 0 2.567 1.357 2.567 3.37 0 1.996-1.058 3.338-2.567 3.338zm6.155.858h1.26v-8.424h-1.26V36zm.638-10.234c.498 0 .918-.358.918-.858 0-.546-.42-.873-.918-.873-.529 0-.918.327-.918.873 0 .5.39.858.918.858zm6.373 10.437c1.027 0 1.93-.546 2.599-1.217h.03L94.174 36h1.043V23.582h-1.26v3.308l.062 1.466c-.763-.624-1.416-.998-2.412-.998-1.93 0-3.657 1.716-3.657 4.446 0 2.808 1.354 4.399 3.47 4.399zm.265-1.077c-1.54 0-2.412-1.263-2.412-3.338 0-1.966 1.104-3.354 2.536-3.354.731 0 1.385.265 2.147.936v4.555c-.746.796-1.462 1.201-2.271 1.201zm11.326-3.744l.591-1.856c.42-1.295.794-2.512 1.167-3.869h.063c.389 1.342.747 2.574 1.182 3.869l.592 1.856h-3.595zM108.067 36h1.37l-3.906-11.42h-1.416L100.225 36h1.291l1.167-3.604h4.248L108.067 36zm3.013 0h1.291v-4.618h1.93c2.505 0 4.17-1.123 4.17-3.494 0-2.45-1.665-3.307-4.233-3.307h-3.158V36zm1.291-5.678v-4.696h1.68c2.086 0 3.144.546 3.144 2.262 0 1.7-.996 2.434-3.081 2.434h-1.743zM120.82 36h1.291v-3.682l2.039-2.402L127.635 36h1.447l-4.108-7.098 3.58-4.321h-1.479l-4.933 5.881h-.03v-5.881h-1.292V36z" transform="translate(-456 -458) translate(456 458)"/>
            </g>
        </g>
    </g>
</svg>
