<svg xmlns="http://www.w3.org/2000/svg" width="158" height="48" viewBox="0 0 158 48">
    <g fill="none" fill-rule="evenodd">
        <g fill-rule="nonzero">
            <g>
                <path fill="#000" d="M10.147 47.998c-.41 0-.808-.006-1.212-.014-.84-.01-1.676-.079-2.505-.205-.772-.125-1.52-.356-2.22-.687-.693-.329-1.326-.76-1.872-1.277-.555-.51-1.017-1.102-1.367-1.752-.355-.654-.6-1.355-.727-2.08-.139-.777-.213-1.563-.225-2.352C.012 39.367 0 38.485 0 38.485V9.499s.012-.867.02-1.122c.01-.787.085-1.573.222-2.35C.37 5.3.615 4.597.97 3.94 1.682 2.636 2.816 1.573 4.21.905 4.907.575 5.654.344 6.424.22 7.255.094 8.095.026 8.937.016L10.147 0h137.7l1.224.015c.834.01 1.666.077 2.49.205.777.123 1.533.355 2.238.687 1.39.671 2.522 1.733 3.235 3.037.35.651.591 1.35.718 2.069.138.783.217 1.574.232 2.368.004.355.004.737.004 1.117.012.47.012.918.012 1.369V37.13c0 .456 0 .9-.012 1.35 0 .408 0 .78-.005 1.166-.015.78-.092 1.557-.23 2.326-.124.73-.368 1.436-.723 2.096-.353.643-.812 1.23-1.36 1.738-.549.52-1.182.953-1.876 1.284-.704.333-1.457.565-2.234.689-.828.126-1.665.195-2.505.205-.391.008-.803.013-1.202.013L146.4 48l-136.253-.002z" transform="translate(-113 -458) translate(113 458)"/>
                <path fill="#FFF" d="M59.127 32.95h-5.54l-1.33 3.938h-2.346l5.247-14.57h2.438l5.247 14.57h-2.386l-1.33-3.938zm-4.966-1.817h4.391l-2.164-6.392h-.061l-2.167 6.392h.001zm20.014.445c0 3.301-1.762 5.421-4.421 5.421-.674.036-1.344-.12-1.934-.448-.59-.329-1.075-.817-1.4-1.41h-.05v5.261h-2.177V26.266H66.3v1.766h.04c.34-.59.834-1.075 1.427-1.406.594-.33 1.266-.493 1.945-.471 2.691 0 4.463 2.13 4.463 5.423zm-2.235 0c0-2.152-1.11-3.565-2.8-3.565-1.662 0-2.78 1.443-2.78 3.565 0 2.14 1.117 3.573 2.78 3.573 1.692 0 2.8-1.404 2.8-3.573zm13.898 0c0 3.301-1.762 5.421-4.422 5.421-.674.036-1.344-.12-1.934-.448-.59-.329-1.075-.817-1.4-1.41h-.05v5.261h-2.175V26.266h2.104v1.766h.04c.341-.59.835-1.075 1.43-1.406.593-.33 1.266-.493 1.945-.471 2.69 0 4.462 2.13 4.462 5.423zm-2.236 0c0-2.152-1.108-3.565-2.8-3.565-1.662 0-2.78 1.443-2.78 3.565 0 2.14 1.118 3.573 2.78 3.573 1.692 0 2.8-1.404 2.8-3.573zm9.944 1.25c.161 1.445 1.561 2.394 3.474 2.394 1.834 0 3.153-.949 3.153-2.251 0-1.131-.796-1.808-2.68-2.272l-1.882-.456c-2.67-.646-3.908-1.897-3.908-3.927 0-2.514 2.185-4.241 5.287-4.241 3.072 0 5.177 1.727 5.248 4.24h-2.196c-.13-1.453-1.33-2.331-3.082-2.331-1.753 0-2.95.887-2.95 2.18 0 1.03.765 1.637 2.638 2.1l1.601.395c2.983.706 4.22 1.907 4.22 4.039 0 2.726-2.165 4.433-5.61 4.433-3.223 0-5.399-1.668-5.54-4.302h2.227zm13.618-9.077v2.515h2.015v1.725h-2.016v5.856c0 .911.403 1.335 1.29 1.335.238-.004.477-.022.715-.05v1.717c-.399.073-.803.107-1.208.1-2.146 0-2.982-.808-2.982-2.869v-6.089h-1.54v-1.725h1.54V23.75h2.186zm3.182 7.827c0-3.343 1.964-5.444 5.026-5.444 3.071 0 5.026 2.102 5.026 5.444 0 3.351-1.944 5.442-5.026 5.442s-5.026-2.091-5.026-5.442zm7.836 0c0-2.294-1.048-3.646-2.81-3.646-1.763 0-2.81 1.363-2.81 3.646 0 2.301 1.047 3.644 2.81 3.644 1.762 0 2.81-1.344 2.81-3.644zm4.01-5.312h2.075v1.808h.05c.14-.565.47-1.064.934-1.414.463-.35 1.034-.529 1.613-.506.252 0 .5.026.745.082v2.04c-.316-.098-.645-.142-.977-.133-.316-.013-.63.043-.923.164-.292.12-.555.303-.77.536-.216.232-.379.508-.477.81-.1.3-.132.62-.096.935v6.3h-2.175V26.266zm15.446 7.502c-.292 1.929-2.166 3.252-4.563 3.252-3.082 0-4.996-2.07-4.996-5.392 0-3.333 1.924-5.494 4.906-5.494 2.93 0 4.774 2.02 4.774 5.241v.747h-7.483v.13c-.035.392.014.786.143 1.156.129.37.336.71.605.994.27.285.596.509.959.657.362.148.753.217 1.143.203.514.048 1.03-.07 1.47-.34.441-.27.784-.674.978-1.154h2.064zm-7.351-3.17h5.296c.02-.352-.033-.704-.157-1.033-.122-.33-.31-.631-.555-.884-.244-.253-.537-.453-.862-.587-.324-.134-.674-.2-1.024-.192-.355-.002-.705.066-1.033.2-.328.135-.626.333-.877.584-.251.25-.45.548-.586.876-.135.328-.204.68-.202 1.035zM53.889 11.35c.456-.032.913.037 1.34.203.425.166.81.425 1.124.757.314.333.55.731.693 1.167.142.435.186.897.128 1.352 0 2.237-1.205 3.523-3.285 3.523h-2.523V11.35h2.523zm-1.439 6.011h1.318c.325.02.651-.034.954-.157.302-.122.574-.311.794-.552.22-.242.385-.529.48-.842.097-.312.122-.643.074-.966.044-.323.016-.65-.081-.961-.097-.31-.262-.596-.482-.835-.22-.239-.49-.427-.79-.549-.301-.122-.625-.177-.95-.159H52.45v5.021zm5.95-1.653c-.033-.348.006-.699.115-1.03.11-.332.287-.636.521-.895.235-.258.52-.465.838-.606.319-.142.663-.215 1.012-.215.348 0 .692.073 1.01.215.32.141.605.348.839.606.234.259.411.563.521.895.11.331.149.682.115 1.03.034.347-.005.698-.115 1.03-.11.33-.287.636-.521.894-.234.259-.52.465-.838.607-.319.141-.663.214-1.011.214-.349 0-.693-.073-1.012-.214-.318-.142-.603-.348-.838-.607-.234-.258-.411-.563-.52-.895-.11-.331-.15-.682-.116-1.03zm3.9 0c0-1.146-.512-1.816-1.413-1.816-.905 0-1.412.67-1.412 1.816 0 1.154.508 1.818 1.412 1.818.9 0 1.414-.668 1.414-1.818zm7.678 2.644H68.9L67.81 14.46h-.083l-1.084 3.892h-1.068l-1.454-5.284h1.056l.943 4.032h.078l1.084-4.032h.997l1.084 4.032h.082l.94-4.032h1.04l-1.447 5.284zm2.669-5.284h1v.84h.079c.131-.302.353-.555.636-.724.282-.169.609-.245.936-.218.257-.02.514.02.754.114.24.093.455.24.63.429s.306.414.382.66c.076.247.096.507.059.762v3.42h-1.04v-3.157c0-.85-.369-1.272-1.138-1.272-.174-.008-.348.022-.51.087-.161.065-.307.165-.426.292-.12.128-.21.28-.266.445-.056.165-.075.341-.057.515v3.091h-1.04v-5.284zm6.133-2.062h1.04v7.346h-1.04v-7.347zm2.486 4.702c-.034-.348.006-.699.115-1.03.11-.332.287-.636.521-.895.234-.258.52-.465.838-.606.319-.142.663-.215 1.011-.215.349 0 .693.073 1.012.215.318.141.604.348.838.606.234.259.411.563.52.895.11.331.15.682.116 1.03.034.347-.006.698-.115 1.03-.11.33-.287.636-.521.894-.234.259-.52.465-.838.607-.319.141-.663.214-1.012.214-.348 0-.692-.073-1.01-.214-.32-.142-.605-.348-.839-.607-.234-.258-.411-.563-.52-.895-.11-.331-.15-.682-.116-1.03zm3.9 0c0-1.146-.512-1.816-1.413-1.816-.905 0-1.413.67-1.413 1.816 0 1.154.508 1.818 1.413 1.818.9 0 1.414-.668 1.414-1.818zm2.166 1.15c0-.952.706-1.5 1.96-1.578l1.427-.082v-.457c0-.558-.368-.872-1.078-.872-.581 0-.983.213-1.098.586h-1.008c.106-.906.958-1.489 2.153-1.489 1.322 0 2.067.66 2.067 1.775v3.611h-1v-.743h-.083c-.34.542-.945.86-1.584.83-.22.023-.444-.001-.656-.07-.212-.069-.406-.181-.572-.33-.165-.15-.298-.331-.389-.535-.09-.203-.138-.423-.14-.646zm3.387-.452v-.442l-1.287.083c-.726.048-1.054.295-1.054.762 0 .475.411.752.976.752.166.016.334 0 .493-.05.159-.05.306-.13.434-.238.127-.107.232-.24.307-.388.075-.15.12-.312.131-.479zm2.403-.698c0-1.67.856-2.728 2.187-2.728.33-.015.657.064.943.229.286.164.52.407.674.7h.077v-2.904h1.04v7.346h-.996v-.835h-.082c-.166.29-.408.53-.7.692-.291.162-.622.242-.956.23-1.34 0-2.187-1.058-2.187-2.731zm1.074 0c0 1.12.527 1.795 1.408 1.795.877 0 1.418-.685 1.418-1.791 0-1.1-.546-1.795-1.418-1.795-.875 0-1.408.68-1.408 1.79zm8.15 0c-.033-.348.006-.699.116-1.03.11-.332.287-.636.52-.895.235-.258.52-.465.839-.606.318-.142.663-.215 1.011-.215.348 0 .693.073 1.011.215.319.141.604.348.838.606.234.259.412.563.521.895.11.331.15.682.115 1.03.034.347-.005.698-.115 1.03-.11.33-.287.636-.52.894-.235.259-.52.465-.839.607-.318.141-.663.214-1.011.214-.348 0-.693-.073-1.011-.214-.319-.142-.604-.348-.838-.607-.234-.258-.412-.563-.521-.895-.11-.331-.15-.682-.115-1.03zm3.901 0c0-1.146-.513-1.816-1.414-1.816-.904 0-1.412.67-1.412 1.816 0 1.154.509 1.818 1.413 1.818.9 0 1.413-.668 1.413-1.818zm2.465-2.64h1.002v.84h.077c.27-.62.902-.997 1.574-.942.256-.019.513.02.753.114s.454.24.63.43c.175.188.305.414.382.66.076.246.096.506.058.761v3.42h-1.04v-3.157c0-.85-.367-1.272-1.136-1.272-.175-.008-.348.022-.51.087-.162.065-.307.165-.427.292-.12.128-.21.28-.266.445-.055.165-.075.341-.056.515v3.091h-1.04v-5.284zm10.353-1.315v1.34h1.142v.877h-1.141v2.717c0 .555.226.796.745.796.133 0 .265-.009.396-.024v.868c-.187.034-.376.052-.566.054-1.156 0-1.617-.409-1.617-1.426V13.97h-.836v-.878h.836v-1.34h1.042-.001zm2.564-.747h1.03v2.912h.082c.284-.624.925-1.003 1.606-.947.255-.014.511.028.747.124.237.097.45.244.624.432.173.189.304.413.38.657.077.244.1.503.065.757v3.411h-1.041v-3.155c0-.844-.392-1.272-1.128-1.272-.178-.014-.358.01-.527.073-.167.062-.32.16-.446.288-.127.128-.224.282-.285.45-.06.17-.084.35-.068.53v3.085h-1.04v-7.346zm10.598 5.92c-.141.483-.448.9-.864 1.18-.418.278-.92.402-1.419.347-.347.01-.693-.057-1.011-.195-.32-.138-.605-.344-.836-.603-.232-.26-.404-.567-.506-.9-.1-.333-.13-.684-.081-1.03-.047-.345-.018-.697.083-1.03.102-.335.273-.643.504-.904.23-.262.514-.471.832-.613.317-.142.662-.215 1.01-.212 1.467 0 2.352 1.004 2.352 2.664v.363h-3.722v.06c-.016.193.008.388.072.572.063.184.164.352.297.495.131.142.292.256.47.332.178.077.371.116.565.114.509.06 1.004-.192 1.253-.64h1zm-3.658-1.704h2.662c.013-.177-.01-.355-.07-.523-.06-.167-.154-.32-.276-.45-.122-.128-.27-.23-.434-.298-.164-.068-.34-.101-.518-.097-.18-.002-.357.032-.525.1-.166.068-.317.168-.444.296-.127.127-.228.28-.296.446-.067.167-.101.346-.1.526zm-89.962 9.703c.013-.98.272-1.94.754-2.791.483-.852 1.172-1.568 2.004-2.08-.529-.758-1.226-1.38-2.037-1.82-.81-.44-1.713-.683-2.634-.712-1.965-.207-3.87 1.179-4.873 1.179-1.02 0-2.562-1.159-4.223-1.124-1.074.034-2.12.348-3.038.909-.917.56-1.674 1.35-2.197 2.292-2.263 3.928-.574 9.702 1.593 12.879 1.085 1.555 2.353 3.291 4.011 3.23 1.624-.068 2.23-1.038 4.19-1.038 1.942 0 2.511 1.037 4.203.999 1.742-.029 2.84-1.563 3.887-3.132.779-1.108 1.379-2.333 1.777-3.629-1.013-.429-1.876-1.147-2.484-2.065-.607-.918-.932-1.995-.933-3.097zm-3.197-9.491c.95-1.144 1.418-2.613 1.304-4.096-1.45.153-2.79.848-3.753 1.947-.47.537-.831 1.162-1.061 1.838-.23.677-.324 1.393-.278 2.106.726.007 1.444-.15 2.1-.461.656-.311 1.233-.767 1.688-1.334z" transform="translate(-113 -458) translate(113 458)"/>
            </g>
        </g>
    </g>
</svg>
