<svg xmlns="http://www.w3.org/2000/svg" width="128" height="29" viewBox="0 0 128 29">
    <g fill="none" fill-rule="evenodd">
        <g fill-rule="nonzero">
            <g>
                <path fill="#FFF" d="M125.231 16.476c0-1.675-.98-2.943-2.534-2.943-1.555 0-2.535 1.268-2.535 2.943 0 1.676.98 2.943 2.535 2.943 1.555 0 2.534-1.267 2.534-2.943zm-.085-4.06V8.013c0-.301.192-.537.469-.623l2.3-.623v14.865h-2.556v-1.268c-.639.946-1.81 1.504-3.259 1.504-2.981 0-4.706-2.406-4.706-5.413 0-3.008 1.746-5.414 4.706-5.414 1.47.022 2.514.645 3.046 1.375zm-15.76-1.117v1.268c.468-.881 1.533-1.504 3.045-1.504 2.47 0 3.77 1.654 3.77 4.124v6.466h-2.769V15.51c0-1.203-.51-2.041-1.746-2.041-1.342 0-2.087.86-2.087 2.255v5.93h-2.77l.001-10.333h2.556v-.022zm-9.052 10.59c-3.003 0-4.664-1.31-4.664-4.66v-5.93h2.769v5.972c0 1.44.639 2.105 1.874 2.105s1.874-.666 1.874-2.105V11.3h2.769v5.93c.021 3.35-1.64 4.66-4.622 4.66zm-13.843-5.413c0 1.848 1.128 2.943 2.598 2.943s2.598-1.095 2.598-2.943c0-1.847-1.129-2.943-2.598-2.943-1.448 0-2.598 1.074-2.598 2.943zm2.598 5.414c-3.28 0-5.389-2.47-5.389-5.414 0-2.943 2.088-5.413 5.389-5.413 3.28 0 5.388 2.47 5.388 5.413S92.39 21.89 89.09 21.89zm-13.844-5.414c0 1.676.98 2.943 2.535 2.943 1.554 0 2.534-1.267 2.534-2.943 0-1.675-.98-2.943-2.534-2.943-1.555 0-2.535 1.268-2.535 2.943zm.085 4.06v4.297c0 .3-.191.537-.468.623l-2.3.601V11.299h2.555v1.268c.64-.946 1.81-1.504 3.259-1.504 2.982 0 4.707 2.406 4.707 5.413 0 3.008-1.747 5.414-4.707 5.414-1.47 0-2.513-.645-3.046-1.354zm-11.032-4.769v5.886H61.53V15.51c0-1.139-.404-2.041-1.64-2.041-1.299 0-2.001.838-2.001 2.234v5.95h-2.77V11.3h2.557v1.268c.468-.881 1.49-1.504 2.96-1.504 1.384 0 2.385.558 2.982 1.46.894-1.009 1.938-1.46 3.407-1.46 2.47 0 3.727 1.718 3.727 4.124v6.466h-2.768V15.51c0-1.139-.405-2.041-1.64-2.041-1.363 0-2.045.86-2.045 2.298zm-18.465.71c0 1.847 1.129 2.942 2.598 2.942 1.47 0 2.599-1.095 2.599-2.943 0-1.847-1.13-2.943-2.599-2.943-1.47 0-2.598 1.074-2.598 2.943zm2.598 5.413c-3.28 0-5.388-2.47-5.388-5.414 0-2.943 2.087-5.413 5.388-5.413 3.301 0 5.389 2.47 5.389 5.413S51.71 21.89 48.43 21.89zm-19.807-7.283c0-4.382 3.003-7.282 6.986-7.282 3.472 0 6.198 2.062 6.73 5.478h-3.045c-.405-1.762-1.81-2.75-3.685-2.75-2.534 0-3.983 1.783-3.983 4.533 0 2.771 1.427 4.533 3.983 4.533 1.853 0 3.259-.989 3.685-2.75h3.045c-.532 3.415-3.258 5.478-6.73 5.478-3.983.064-6.986-2.857-6.986-7.24z" transform="translate(-1041 -4090) translate(1041 4090)"/>
                <path fill="#00D395" d="M1.278 22.513c-.703-.43-1.15-1.225-1.15-2.041V15.81c0-.171.042-.343.128-.494.276-.472.894-.644 1.363-.365l10.436 6.144c.617.365.98 1.01.98 1.74v4.833c0 .215-.065.43-.171.623-.34.559-1.086.752-1.64.408l-9.946-6.186zm15.569-8.85c.617.364.98 1.009.98 1.74v9.816c0 .301-.15.559-.405.71l-2.28 1.288c-.02.022-.063.022-.084.043v-5.435c0-.709-.362-1.353-.959-1.718l-9.158-5.521V8.378c0-.172.043-.344.128-.494.277-.473.894-.645 1.363-.365l10.415 6.143zM21.404 6.4c.618.366.98 1.01.98 1.74V22.47c0 .3-.17.558-.426.709l-2.172 1.181v-9.967c0-.71-.362-1.354-.959-1.719l-9.37-5.671V1.181c0-.171.042-.343.127-.494.277-.472.895-.644 1.363-.365l10.457 6.08z" transform="translate(-1041 -4090) translate(1041 4090)"/>
            </g>
        </g>
    </g>
</svg>
