<svg xmlns="http://www.w3.org/2000/svg" width="29" height="22" viewBox="0 0 29 22">
    <g fill="none" fill-rule="evenodd">
        <g fill="#3FA3C4" fill-rule="nonzero">
            <g>
                <g>
                    <path d="M320.582 103.025s-2.919-2.356-6.364-2.625l-.31.641c3.114.787 4.543 1.912 6.037 3.297-2.575-1.356-5.116-2.625-9.545-2.625-4.43 0-6.97 1.269-9.545 2.625 1.494-1.385 3.194-2.636 6.037-3.297l-.31-.641c-3.615.351-6.364 2.625-6.364 2.625s-3.259 4.873-3.818 14.438c3.284 3.906 8.273 3.937 8.273 3.937l1.043-1.433c-1.771-.635-3.77-1.769-5.498-3.817 2.06 1.608 5.17 3.281 10.182 3.281 5.011 0 8.121-1.673 10.182-3.281-1.728 2.048-3.726 3.181-5.498 3.817l1.043 1.433s4.99-.03 8.273-3.938c-.56-9.564-3.818-14.437-3.818-14.437zm-14.318 11.813c-1.231 0-2.228-1.175-2.228-2.625s.997-2.625 2.228-2.625c1.23 0 2.227 1.174 2.227 2.625 0 1.45-.997 2.625-2.227 2.625zm8.272 0c-1.23 0-2.227-1.175-2.227-2.625s.997-2.625 2.227-2.625c1.231 0 2.228 1.174 2.228 2.625 0 1.45-.997 2.625-2.228 2.625z" transform="translate(-504 -6251) translate(208 5999) translate(0 151.629)"/>
                </g>
            </g>
        </g>
    </g>
</svg>
