<?xml version="1.0" encoding="UTF-8"?>
<svg width="30px" height="30px" viewBox="0 0 30 30" version="1.1" xmlns="http://www.w3.org/2000/svg" xmlns:xlink="http://www.w3.org/1999/xlink">
    <title>Group 2</title>
    <defs>
        <path d="M0,15 C0,6.71572834 6.71572834,0 15,0 C23.2842717,0 30,6.71572834 30,15 C30,23.2842717 23.2842717,30 15,30 C6.71572834,30 0,23.2842717 0,15 Z" id="path-1"></path>
    </defs>
    <g id="Final--KNC---About-KN" stroke="none" stroke-width="1" fill="none" fill-rule="evenodd">
        <g id="Kyber_KNCPage--2" transform="translate(-504.000000, -4124.000000)">
            <g id="Group-16" transform="translate(70.000000, 4124.000000)">
                <g id="Group-2" transform="translate(434.000000, 0.000000)">
                    <g id="Medium-Copy">
                        <mask id="mask-2" fill="white">
                            <use xlink:href="#path-1"></use>
                        </mask>
                        <use id="Mask" fill="#FFFFFF" xlink:href="#path-1"></use>
                    </g>
                    <path d="M15.9349647,6 C19.4051791,6 21.4342816,8.02996523 21.4342816,10.8727049 C21.4342816,12.8015177 20.3042704,14.1716866 18.7109046,14.7614787 C20.7924808,15.2696167 22,17.0947781 22,19.1013734 C22,21.9441307 19.7122706,24 16.3720378,24 L10,24 L10,6 L15.9349647,6 Z M15.6528182,13.8618764 C17.6832571,13.8618764 18.8906872,12.6693578 18.8906872,10.9945701 C18.8906872,9.2938255 17.6320306,8.17644097 15.5504544,8.17644097 L12.5173131,8.17644097 L12.5173131,13.8618764 L15.6528182,13.8618764 Z M16.0123834,21.810651 C18.0428224,21.810651 19.4248679,20.6931873 19.4248679,18.9432567 C19.4248679,17.2166433 18.3198016,15.9981679 16.1108273,15.9981679 L12.5173131,15.9981679 L12.5173131,21.810651 L16.0123834,21.810651 Z" id="Shape" fill="#262626"></path>
                </g>
            </g>
        </g>
    </g>
</svg>