<svg xmlns="http://www.w3.org/2000/svg" width="162" height="48" viewBox="0 0 162 48">
    <defs>
        <linearGradient id="elqze17l9a" x1="50%" x2="50%" y1="0%" y2="100%">
            <stop offset="0%" stop-color="#00C2FF"/>
            <stop offset="100%" stop-color="#00E3FF"/>
        </linearGradient>
        <linearGradient id="bfu1t6da4b" x1="107.6%" x2="1.432%" y1="49.399%" y2="49.53%">
            <stop offset="0%" stop-color="#FFDA00"/>
            <stop offset="100%" stop-color="#FCBC01"/>
        </linearGradient>
        <linearGradient id="b8x76iuibc" x1="86.73%" x2="3.356%" y1="30.461%" y2="81.146%">
            <stop offset="0%" stop-color="#FF3248"/>
            <stop offset="100%" stop-color="#E22653"/>
        </linearGradient>
        <linearGradient id="bgl3cmtc6d" x1="102.68%" x2="-2.669%" y1="63.814%" y2="19.435%">
            <stop offset="0%" stop-color="#00F076"/>
            <stop offset="100%" stop-color="#13D772"/>
        </linearGradient>
        <linearGradient id="3u831uil0e" x1="706.585%" x2="-1643.475%" y1="-362.845%" y2="-362.845%">
            <stop offset="0%" stop-color="#CCB300"/>
            <stop offset="100%" stop-color="#CC7C00"/>
        </linearGradient>
        <linearGradient id="9w813zzqif" x1="1440.825%" x2="-764.162%" y1="-934.02%" y2="-3144.436%">
            <stop offset="0%" stop-color="#DF333B"/>
            <stop offset="100%" stop-color="#AA0E56"/>
        </linearGradient>
    </defs>
    <g fill="none" fill-rule="evenodd">
        <g>
            <g>
                <path fill="#000" fill-rule="nonzero" d="M155.936 48H6.134C2.838 48 .142 45.3.142 42V6.004c0-3.3 2.696-6 5.992-6h149.802c3.296 0 5.991 2.7 5.991 6V42c0 3.3-2.695 6-5.991 6z" transform="translate(-282 -458) translate(282 458)"/>
                <path fill="#FFF" fill-rule="nonzero" d="M56.791 12.272c0 1.005-.297 1.805-.892 2.403-.677.71-1.558 1.064-2.642 1.064-1.038 0-1.92-.36-2.646-1.08-.727-.72-1.09-1.613-1.09-2.68 0-1.066.363-1.958 1.09-2.68.725-.72 1.608-1.08 2.646-1.08.514 0 1.008.1 1.476.302.468.201.843.469 1.125.804l-.633.633c-.476-.57-1.131-.854-1.968-.854-.757 0-1.411.266-1.964.799-.552.533-.828 1.225-.828 2.076 0 .852.276 1.544.828 2.077.553.533 1.207.799 1.964.799.803 0 1.472-.268 2.009-.804.347-.35.549-.835.601-1.458h-2.61v-.865h3.484c.034.188.05.368.05.544z" transform="translate(-282 -458) translate(282 458)"/>
                <path fill="#FFF" fill-rule="nonzero" d="M57.031 12.255h-.24c0 .983-.287 1.745-.858 2.319v.002c-.656.685-1.498 1.026-2.556 1.027-1.01-.001-1.856-.346-2.562-1.045-.705-.7-1.052-1.556-1.053-2.595 0-1.04.348-1.894 1.053-2.595.706-.7 1.552-1.045 2.562-1.046.499 0 .975.097 1.429.293.454.195.812.452 1.08.77l.092-.077-.085-.085-.632.634.084.085.092-.077c-.498-.599-1.197-.9-2.06-.897-.786-.002-1.476.28-2.047.832-.577.556-.866 1.287-.865 2.163-.001.877.288 1.607.865 2.163.57.553 1.261.834 2.047.833.83 0 1.537-.281 2.093-.84.371-.372.582-.89.637-1.532l.012-.13h-2.622v-.625h3.364v-.12l-.117.021c.032.182.047.354.047.522h.24c0-.182-.017-.37-.053-.565l-.016-.098h-3.705v1.105h2.73v-.12l-.118-.01c-.053.603-.245 1.057-.568 1.383-.516.513-1.147.768-1.924.769-.73-.001-1.347-.252-1.88-.766-.529-.511-.791-1.164-.792-1.99 0-.826.263-1.479.792-1.99.533-.513 1.15-.764 1.88-.765.81 0 1.421.27 1.877.81l.084.102.724-.726.077-.078-.07-.084c-.295-.352-.687-.63-1.169-.838-.483-.207-.993-.312-1.523-.312-1.066-.001-1.986.374-2.731 1.116-.748.74-1.125 1.671-1.124 2.765-.001 1.093.376 2.024 1.124 2.765.745.742 1.666 1.116 2.731 1.115 1.109.001 2.03-.367 2.728-1.101l-.087-.083.086.084c.62-.62.928-1.46.927-2.488zM62.427 9.24L59.153 9.24 59.153 11.522 62.106 11.522 62.106 12.387 59.153 12.387 59.153 14.67 62.427 14.67 62.427 15.554 58.229 15.554 58.229 8.355 62.427 8.355z" transform="translate(-282 -458) translate(282 458)"/>
                <path fill="#FFF" fill-rule="nonzero" d="M62.366 9.269L62.366 9.149 58.972 9.149 58.972 11.671 61.925 11.671 61.925 12.297 58.972 12.297 58.972 14.819 62.246 14.819 62.246 15.463 58.288 15.463 58.288 8.504 62.246 8.504 62.246 9.269 62.366 9.269 62.366 9.149 62.366 9.269 62.486 9.269 62.486 8.264 58.048 8.264 58.048 15.703 62.486 15.703 62.486 14.579 59.212 14.579 59.212 12.537 62.164 12.537 62.164 11.431 59.212 11.431 59.212 9.389 62.486 9.389 62.486 9.269zM66.241 15.554L65.317 15.554 65.317 9.24 63.308 9.24 63.308 8.355 68.25 8.355 68.25 9.24 66.241 9.24z" transform="translate(-282 -458) translate(282 458)"/>
                <path fill="#FFF" fill-rule="nonzero" d="M66.179 15.583L66.179 15.463 65.375 15.463 65.375 9.149 63.367 9.149 63.367 8.504 68.068 8.504 68.068 9.149 66.06 9.149 66.06 15.583 66.179 15.583 66.179 15.463 66.179 15.583 66.299 15.583 66.299 9.389 68.308 9.389 68.308 8.264 63.127 8.264 63.127 9.389 65.136 9.389 65.136 15.703 66.299 15.703 66.299 15.583zM72.757 8.355L71.834 8.355 71.834 15.554 72.757 15.554z" transform="translate(-282 -458) translate(282 458)"/>
                <path fill="#FFF" fill-rule="nonzero" d="M71.773 15.583L71.893 15.583 71.893 8.504 72.576 8.504 72.576 15.463 71.773 15.463 71.773 15.583 71.893 15.583 71.773 15.583 71.773 15.703 72.816 15.703 72.816 8.264 71.653 8.264 71.653 15.703 71.773 15.703zM76.944 15.554L76.019 15.554 76.019 9.24 74.012 9.24 74.012 8.355 78.953 8.355 78.953 9.24 76.944 9.24z" transform="translate(-282 -458) translate(282 458)"/>
                <path fill="#FFF" fill-rule="nonzero" d="M76.882 15.583L76.882 15.463 76.077 15.463 76.077 9.149 74.07 9.149 74.07 8.504 78.771 8.504 78.771 9.149 76.763 9.149 76.763 15.583 76.882 15.583 76.882 15.463 76.882 15.583 77.002 15.583 77.002 9.389 79.011 9.389 79.011 8.264 73.83 8.264 73.83 9.389 75.837 9.389 75.837 15.703 77.002 15.703 77.002 15.583zM83.553 14.046c.532.539 1.182.809 1.953.809.77 0 1.421-.27 1.953-.809.533-.54.8-1.228.8-2.067 0-.838-.267-1.526-.8-2.066-.532-.54-1.184-.81-1.953-.81-.77 0-1.421.27-1.953.81s-.798 1.228-.798 2.066c0 .839.266 1.527.798 2.067zm4.59.603c-.708.728-1.586 1.09-2.637 1.09-1.05 0-1.93-.362-2.635-1.09-.707-.728-1.06-1.618-1.06-2.67 0-1.052.353-1.942 1.06-2.669.704-.728 1.584-1.092 2.635-1.092 1.045 0 1.921.366 2.632 1.097.71.73 1.064 1.619 1.064 2.664 0 1.052-.354 1.942-1.06 2.67z" transform="translate(-282 -458) translate(282 458)"/>
                <path fill="#FFF" fill-rule="nonzero" d="M83.672 14.03l-.085.084c.552.562 1.24.846 2.039.845.798 0 1.487-.283 2.038-.845.555-.562.836-1.288.834-2.151.002-.863-.279-1.59-.834-2.15-.55-.562-1.24-.847-2.038-.845-.798-.002-1.487.283-2.039.844-.554.562-.834 1.288-.833 2.15 0 .864.279 1.59.833 2.152l.085-.084.086-.085c-.509-.517-.763-1.169-.764-1.982.001-.813.255-1.464.764-1.983v.002c.513-.519 1.125-.773 1.868-.774.742 0 1.355.255 1.867.772v.002c.51.517.765 1.168.766 1.98-.001.814-.255 1.466-.766 1.983-.512.518-1.125.773-1.867.774-.743-.001-1.355-.256-1.868-.774l-.086.085zm4.677.686l-.173-.168c-.687.706-1.527 1.054-2.55 1.055-1.024-.001-1.865-.35-2.55-1.055l-.004-.002.004.002c-.686-.706-1.024-1.56-1.025-2.585.001-1.025.34-1.878 1.025-2.585.685-.706 1.526-1.055 2.55-1.056 1.017.001 1.855.352 2.545 1.06.69.711 1.03 1.562 1.031 2.58-.001 1.026-.342 1.88-1.026 2.586l.173.168c.726-.747 1.094-1.674 1.093-2.753 0-1.073-.368-1.997-1.098-2.748-.731-.753-1.645-1.134-2.718-1.133-1.079-.001-1.997.378-2.722 1.128-.728.748-1.094 1.674-1.093 2.753 0 1.08.365 2.006 1.093 2.753l.004.004-.004-.004c.725.75 1.643 1.128 2.722 1.127 1.078.001 1.995-.377 2.723-1.127zM90.519 15.554L90.519 8.355 91.643 8.355 95.137 13.956 95.177 13.956 95.137 12.569 95.137 8.355 96.063 8.355 96.063 15.554 95.098 15.554 91.442 9.683 91.402 9.683 91.442 11.07 91.442 15.554z" transform="translate(-282 -458) translate(282 458)"/>
                <path fill="#FFF" fill-rule="nonzero" d="M90.639 15.583L90.759 15.583 90.759 8.504 91.697 8.504 95.191 14.105 95.42 14.105 95.377 12.595 95.377 8.504 96.063 8.504 96.063 15.463 95.285 15.463 91.629 9.592 91.398 9.592 91.442 11.101 91.442 15.463 90.639 15.463 90.639 15.583 90.759 15.583 90.639 15.583 90.639 15.703 91.681 15.703 91.681 11.098 91.642 9.708 91.522 9.712 91.522 9.832 91.561 9.832 91.561 9.712 91.46 9.776 95.152 15.703 96.302 15.703 96.302 8.264 95.137 8.264 95.137 12.599 95.177 13.988 95.297 13.985 95.297 13.865 95.257 13.865 95.257 13.985 95.359 13.921 91.83 8.264 90.519 8.264 90.519 15.703 90.639 15.703zM128.129 35.975h2.236V20.974h-2.236v15zm20.142-9.598l-2.563 6.503h-.077l-2.66-6.503h-2.41l3.99 9.09-2.275 5.055h2.334l6.148-14.145h-2.487zM135.59 34.27c-.734 0-1.755-.366-1.755-1.273 0-1.158 1.273-1.602 2.37-1.602.985 0 1.446.212 2.044.501-.174 1.39-1.369 2.374-2.66 2.374zm.27-8.22c-1.62 0-3.297.713-3.99 2.296l1.984.83c.424-.83 1.214-1.1 2.044-1.1 1.156 0 2.332.694 2.351 1.93v.154c-.405-.232-1.271-.58-2.332-.58-2.14 0-4.318 1.178-4.318 3.378 0 2.006 1.754 3.3 3.72 3.3 1.504 0 2.332-.676 2.853-1.466h.077v1.157h2.158V30.2c0-2.664-1.984-4.15-4.548-4.15zm-13.82 2.153h-3.182v-5.142h3.181c1.672 0 2.621 1.386 2.621 2.572 0 1.163-.949 2.57-2.62 2.57zm-.058-7.23h-5.359v15.002h2.235V30.29h3.124c2.478 0 4.913-1.796 4.913-4.658 0-2.863-2.435-4.66-4.913-4.66zm-29.22 13.3c-1.544 0-2.838-1.296-2.838-3.074 0-1.797 1.294-3.111 2.838-3.111 1.525 0 2.722 1.314 2.722 3.111 0 1.778-1.197 3.074-2.722 3.074zm2.568-7.055h-.077c-.502-.6-1.468-1.141-2.684-1.141-2.548 0-4.885 2.242-4.885 5.122 0 2.862 2.337 5.084 4.885 5.084 1.216 0 2.182-.541 2.684-1.16h.077v.735c0 1.952-1.043 2.996-2.723 2.996-1.37 0-2.22-.986-2.567-1.816l-1.95.81c.56 1.354 2.046 3.017 4.517 3.017 2.627 0 4.846-1.546 4.846-5.316v-9.163H95.33v.832zm3.668 8.757h2.24V20.974h-2.24v15zm5.542-4.95c-.059-1.971 1.525-2.977 2.664-2.977.889 0 1.642.445 1.892 1.084l-4.556 1.893zm6.95-1.7c-.424-1.141-1.718-3.248-4.363-3.248-2.626 0-4.808 2.068-4.808 5.103 0 2.862 2.162 5.103 5.058 5.103 2.337 0 3.69-1.43 4.249-2.262l-1.738-1.159c-.579.85-1.37 1.411-2.51 1.411-1.14 0-1.95-.522-2.472-1.546l6.816-2.823-.232-.58zm-54.299-1.682v2.164h5.175c-.154 1.218-.56 2.107-1.178 2.726-.753.754-1.93 1.585-3.997 1.585-3.185 0-5.675-2.571-5.675-5.76 0-3.19 2.49-5.76 5.675-5.76 1.719 0 2.974.676 3.901 1.546l1.525-1.528c-1.294-1.237-3.012-2.183-5.426-2.183-4.363 0-8.031 3.556-8.031 7.925s3.668 7.925 8.031 7.925c2.356 0 4.132-.773 5.523-2.222 1.428-1.432 1.873-3.441 1.873-5.065 0-.503-.04-.967-.116-1.353h-7.28zm13.278 6.63c-1.545 0-2.876-1.275-2.876-3.093 0-1.836 1.33-3.092 2.876-3.092 1.544 0 2.876 1.256 2.876 3.092 0 1.818-1.332 3.093-2.876 3.093zm0-8.196c-2.82 0-5.116 2.145-5.116 5.103 0 2.938 2.297 5.103 5.116 5.103 2.818 0 5.116-2.165 5.116-5.103 0-2.958-2.298-5.103-5.116-5.103zm11.16 8.196c-1.543 0-2.876-1.275-2.876-3.093 0-1.836 1.333-3.092 2.877-3.092 1.544 0 2.877 1.256 2.877 3.092 0 1.818-1.333 3.093-2.877 3.093zm0-8.196c-2.818 0-5.115 2.145-5.115 5.103 0 2.938 2.297 5.103 5.116 5.103 2.82 0 5.117-2.165 5.117-5.103 0-2.958-2.298-5.103-5.117-5.103z" transform="translate(-282 -458) translate(282 458)"/>
                <path fill="url(#elqze17l9a)" d="M12.616 38.857l-.089-.085c-.349-.37-.555-.943-.555-1.686v.174-26.542.182c0-.804.241-1.411.643-1.773l14.848 14.865-14.847 14.865zm-.644-28.14c0-.067.003-.131.005-.194-.002.063-.005.127-.005.193z" transform="translate(-282 -458) translate(282 458)"/>
                <path fill="url(#bfu1t6da4b)" d="M32.34 29.113l.112-.064 5.864-3.336c.56-.318.932-.703 1.118-1.112-.186.409-.558.794-1.118 1.113l-5.864 3.336-.113.063zm0-.176l-4.949-4.957 4.95-4.955 5.975 3.399c.76.43 1.185.988 1.256 1.556v.003c-.07.566-.496 1.123-1.256 1.555l-5.975 3.399z" transform="translate(-282 -458) translate(282 458)"/>
                <path fill="url(#b8x76iuibc)" d="M13.656 39.406c-.415 0-.776-.136-1.058-.39v-.001c.282.255.644.391 1.059.391.036 0 .073-.001.11-.004-.037.003-.074.004-.111.004zm.001-.176c-.415 0-.777-.135-1.06-.39l14.848-14.866 4.95 4.957-17.396 9.897c-.48.273-.937.402-1.342.402z" transform="translate(-282 -458) translate(282 458)"/>
                <path fill="url(#bgl3cmtc6d)" d="M27.364 23.967L12.516 9.1c.283-.254.644-.39 1.058-.39.407 0 .863.13 1.345.405l17.395 9.895-4.95 4.956zm5.061-5.067L14.92 8.94c-.482-.274-.938-.404-1.345-.404h-.004.006c.406 0 .861.13 1.343.403l17.506 9.96z" transform="translate(-282 -458) translate(282 458)"/>
                <path fill="#000" fill-rule="nonzero" d="M13.774 39.4c.377-.022.794-.151 1.232-.4L32.4 29.105 15.006 39c-.438.25-.855.38-1.232.4z" transform="translate(-282 -458) translate(282 458)"/>
                <path fill="url(#3u831uil0e)" d="M32.47 29.123l.11-.063-.11.063z" transform="translate(-282 -458) translate(282 458)"/>
                <path fill="#000" fill-rule="nonzero" d="M12.527 38.92c-.349-.37-.555-.943-.555-1.686v-.001c0 .744.206 1.317.555 1.686z" transform="translate(-282 -458) translate(282 458)"/>
                <path fill="url(#9w813zzqif)" d="M12.516 38.909L12.516 38.908 12.602 38.822z" transform="translate(-282 -458) translate(282 458)"/>
                <path fill="#000" fill-rule="nonzero" d="M39.545 24.593c.092-.201.138-.41.138-.618h.001c0 .208-.047.416-.139.618z" transform="translate(-282 -458) translate(282 458)"/>
                <path fill="#404040" fill-rule="nonzero" d="M39.591 23.957c0-.627-.42-1.255-1.257-1.731L32.47 18.89v-.001l5.864 3.337c.838.476 1.257 1.104 1.257 1.731zM11.978 10.485c.07-1.232.739-1.944 1.685-1.949-.41.003-.767.137-1.047.39l-.004.004c-.028.026-.057.054-.085.083-.314.333-.513.832-.549 1.472z" transform="translate(-282 -458) translate(282 458)"/>
            </g>
        </g>
    </g>
</svg>
