<svg xmlns="http://www.w3.org/2000/svg" width="163" height="50" viewBox="0 0 163 50">
    <g fill="none" fill-rule="evenodd">
        <g fill="#FFF">
            <g>
                <g fill-rule="nonzero">
                    <path d="M6.127 36.845L6.127 27.114 6.205 27.114 12.546 36.845 19.895 36.845 12.274 26.444 18.911 17.852 21.121 14.971 13.85 14.971 11.721 17.841 6.205 26.291 6.127 26.291 6.127 0 0 1.561 0 36.845z" transform="translate(-114 -6524) translate(114 6524) translate(53.685 3.747)"/>
                    <path d="M26.94 36.845V27.45c0-1.665.373-2.98 1.12-3.948.746-.967 1.781-1.45 3.106-1.45h7.676v-4.88h-6.574c-2.509 0-4.286.987-5.25 3.65h-.078v-3.65h-6.098v19.672h6.098z" transform="translate(-114 -6524) translate(114 6524) translate(53.685 3.747)"/>
                    <path d="M38.817 46.212c3.888 0 6.798-2.566 8.729-7.698l8.033-21.34h-6.044l-3.727 12.059c-.309.99-.521 1.859-.637 2.605h-.077c-.13-1.017-.31-1.898-.541-2.644L41 17.62c-.081-.265-.326-.446-.602-.446h-6.293l8.033 19.72-1.043 2.45c-.618 1.48-1.712 2.22-3.283 2.22-.952 0-1.834-.239-2.645-.715v4.863c.952.334 2.169.501 3.65.501zM60.162 38.094c1.208 0 2.373-.12 3.495-.36 1.122-.24 2.113-.624 2.973-1.15.86-.526 1.548-1.207 2.067-2.045.518-.838.777-1.847.777-3.029 0-.844-.128-1.571-.384-2.182-.256-.61-.623-1.142-1.102-1.597-.48-.454-1.053-.85-1.723-1.188-.669-.338-1.417-.65-2.244-.935-.46-.156-.922-.309-1.388-.458-.466-.15-.89-.318-1.27-.506-.38-.189-.689-.413-.925-.672-.236-.26-.363-.416-.363-.78 0-.272.087-.478.245-.692.157-.214.374-.39.65-.526.275-.136.593-.24.954-.311.361-.072.745-.108 1.152-.108h5.178v-4.382H62.82c-1.142 0-2.24.12-3.297.36-1.057.241-1.995.618-2.816 1.13-.82.514-1.476 1.173-1.968 1.978-.492.805-.739 1.766-.739 2.883 0 .818.109 1.525.325 2.123.217.597.532 1.123.945 1.578.414.454.926.853 1.536 1.198.61.344 1.316.665 2.116.964.499.195 1.017.37 1.555.526.539.156 1.034.33 1.487.526.453.194.823.422 1.112.681.289.26.433.585.433.974 0 .61-.318 1.065-.955 1.364-.636.299-1.506.448-2.608.448-.906 0-1.867-.15-2.884-.448-1.017-.299-2.038-.753-3.062-1.364v4.987c1.89.675 3.944 1.013 6.162 1.013z" transform="translate(-114 -6524) translate(114 6524) translate(53.685 3.747)"/>
                    <path d="M77.035 37.47c1.837 0 3.212-.238 4.124-.714v-4.513c-.69.373-1.362.56-2.013.56-1.655 0-2.482-1.03-2.482-3.086v-8.164h4.495v-4.38h-4.495v-5.932l-6.156 1.736v4.196h-3.244v4.38h3.244v9.224c0 4.462 2.176 6.692 6.527 6.692zM87.997 37.157c-1.927 0-3.443-.54-4.548-1.621-1.106-1.081-1.659-2.524-1.659-4.327 0-3.812 2.282-6.013 6.847-6.601l5.392-.71c0-2.149-1.176-3.224-3.53-3.224-2.366 0-4.616.698-6.75 2.092v-4.567c.854-.435 2.02-.819 3.501-1.151 1.48-.333 2.829-.499 4.045-.499 5.663 0 8.495 2.795 8.495 8.385v11.743h-5.8v-2.82h-.077c-1.332 2.2-3.304 3.3-5.916 3.3zm2.134-4.298c1.15 0 2.088-.393 2.812-1.18.724-.787 1.086-1.781 1.086-2.984v-1.324l-3.607.46c-1.992.257-2.987 1.146-2.987 2.668 0 .69.242 1.257.727 1.698.485.441 1.141.662 1.969.662zM106.638 37.47c1.057 0 1.808-.068 2.626-.303v-5h-.17c-.785.101-1.092.101-1.74.101-.375 0-.614-.37-.614-.805V7.182h-6.002v24.952c0 3.49 1.875 5.335 5.9 5.335z" transform="translate(-114 -6524) translate(114 6524) translate(53.685 3.747)"/>
                </g>
                <g>
                    <path d="M10.556 13.35L25.23 4.92c.52-.298 1.184-.119 1.483.401.094.165.144.351.144.541v13.99c0 .6-.486 1.087-1.086 1.087-.131 0-.262-.024-.385-.07l-14.673-5.561c-.561-.213-.844-.84-.631-1.4.089-.235.257-.432.474-.557zM28.744 1.533v15.426c0 .6.486 1.086 1.086 1.086.327 0 .637-.148.843-.402l9.73-12.006c.378-.466.306-1.15-.16-1.527-.096-.079-.206-.14-.323-.181L30.19.509c-.566-.2-1.186.098-1.385.664-.04.116-.061.237-.061.36zM1.477 29.549l21.765-5.592c.58-.15.93-.741.782-1.322-.088-.343-.338-.621-.668-.746l-20.67-7.814c-.561-.213-1.188.07-1.4.631-.036.095-.058.195-.067.296L.124 28.408c-.049.598.396 1.122.994 1.171.12.01.242 0 .359-.03zM23.262 28.198l-4.757 13.284c-.202.565-.823.858-1.388.656-.144-.051-.276-.133-.387-.24l-9.884-9.506c-.432-.415-.446-1.103-.03-1.535.14-.145.316-.249.511-.3l14.641-3.777c.581-.15 1.173.2 1.323.78.055.21.044.433-.029.638zM30.742 20.905L40.99 8.25c.377-.466 1.061-.538 1.527-.16.197.158.331.38.381.628l3.11 15.365c.12.588-.26 1.161-.849 1.28-.142.029-.289.029-.431 0L31.37 22.653c-.588-.12-.968-.693-.849-1.28.035-.172.11-.333.22-.468zM32.687 25l14.946 3.045c.561.114.937.646.858 1.214l-1.593 11.454c-.083.594-.632 1.008-1.226.926-.249-.035-.478-.155-.649-.34L31.672 26.8c-.407-.441-.378-1.128.063-1.534.256-.237.61-.335.952-.266zM24.595 29.884l-5.871 16.323c-.203.565.09 1.187.654 1.39.185.066.386.081.579.043l6.153-1.222c.516-.102.884-.56.875-1.085l-.282-15.102c-.011-.6-.506-1.077-1.106-1.066-.45.009-.85.295-1.002.719zM28.797 30.4l.23 12.247c.011.6.507 1.076 1.106 1.065.059 0 .117-.007.174-.017l9.549-1.735c.59-.107.982-.672.874-1.262-.037-.205-.132-.394-.273-.546L30.678 29.64c-.408-.439-1.096-.464-1.535-.055-.226.21-.352.507-.346.815z" transform="translate(-114 -6524) translate(114 6524)"/>
                </g>
            </g>
        </g>
    </g>
</svg>
