<svg xmlns="http://www.w3.org/2000/svg" width="109" height="34" viewBox="0 0 109 34">
    <g fill="none" fill-rule="evenodd">
        <g>
            <g>
                <g fill="#FFF" fill-rule="nonzero">
                    <path d="M4.073 24.563L4.073 18.076 4.124 18.076 8.338 24.563 13.223 24.563 8.158 17.629 12.569 11.901 14.038 9.98 9.205 9.98 7.79 11.894 4.124 17.527 4.073 17.527 4.073 0 0 1.041 0 24.563z" transform="translate(-114 -20) translate(114 20) translate(35.68 2.498)"/>
                    <path d="M17.905 24.563v-6.262c0-1.11.248-1.988.744-2.632.496-.645 1.184-.967 2.065-.967h5.102v-3.253h-4.37c-1.667 0-2.848.657-3.49 2.433h-.05V11.45h-4.054v13.114h4.053z" transform="translate(-114 -20) translate(114 20) translate(35.68 2.498)"/>
                    <path d="M25.8 30.808c2.583 0 4.517-1.71 5.8-5.132l5.34-14.227h-4.017l-2.477 8.04c-.206.66-.347 1.239-.424 1.736h-.051c-.086-.677-.206-1.265-.36-1.762l-2.36-7.717c-.054-.176-.217-.297-.402-.297h-4.181l5.339 13.146-.693 1.634c-.41.986-1.138 1.48-2.182 1.48-.633 0-1.22-.16-1.758-.477v3.242c.633.223 1.441.334 2.425.334zM39.986 25.396c.803 0 1.577-.08 2.322-.24.746-.16 1.405-.416 1.976-.766.572-.351 1.03-.806 1.374-1.364.345-.558.517-1.232.517-2.02 0-.562-.085-1.047-.255-1.454-.17-.407-.415-.762-.733-1.065-.318-.303-.7-.567-1.145-.792-.445-.225-.942-.433-1.491-.623-.306-.104-.613-.206-.923-.305-.31-.1-.59-.212-.844-.338-.253-.125-.458-.275-.615-.448-.157-.173-.24-.277-.24-.52 0-.181.057-.318.162-.46.104-.144.248-.26.431-.352.184-.09.395-.16.635-.207.24-.048.495-.072.765-.072h3.442V11.45h-3.612c-.759 0-1.49.08-2.191.24-.702.16-1.326.411-1.871.753-.546.342-.982.782-1.309 1.318-.327.537-.49 1.178-.49 1.922 0 .546.072 1.018.215 1.416.144.398.354.749.628 1.052.275.303.615.569 1.021.798.406.23.875.444 1.407.643.331.13.676.247 1.033.35.358.105.687.222.988.351.301.13.548.282.74.455.191.173.287.39.287.65 0 .406-.211.71-.634.908-.423.2-1.001.299-1.734.299-.602 0-1.24-.1-1.917-.299-.676-.199-1.354-.502-2.034-.909v3.325c1.256.45 2.62.675 4.095.675z" transform="translate(-114 -20) translate(114 20) translate(35.68 2.498)"/>
                    <path d="M51.2 24.98c1.221 0 2.135-.159 2.74-.476v-3.009c-.458.249-.904.373-1.337.373-1.1 0-1.65-.686-1.65-2.057v-5.443h2.988V11.45h-2.988V7.494L46.862 8.65v2.798h-2.156v2.92h2.156v6.15c0 2.973 1.446 4.46 4.338 4.46zM58.486 24.771c-1.28 0-2.288-.36-3.023-1.08-.735-.721-1.102-1.683-1.102-2.885 0-2.542 1.516-4.008 4.55-4.4l3.584-.474c0-1.433-.782-2.149-2.346-2.149-1.573 0-3.068.465-4.486 1.394v-3.044c.567-.29 1.342-.546 2.327-.768.984-.221 1.88-.332 2.687-.332 3.765 0 5.647 1.863 5.647 5.59v7.829h-3.855v-1.88h-.051c-.885 1.466-2.196 2.2-3.932 2.2zm1.418-2.865c.765 0 1.388-.262 1.87-.787.48-.524.721-1.187.721-1.989v-.883l-2.398.307c-1.323.171-1.985.764-1.985 1.779 0 .46.161.837.483 1.132.323.294.759.441 1.309.441zM70.875 24.98c.703 0 1.202-.045 1.746-.202v-3.333h-.114c-.521.067-.725.067-1.156.067-.25 0-.408-.246-.408-.537V4.788h-3.99v16.635c0 2.326 1.247 3.557 3.922 3.557z" transform="translate(-114 -20) translate(114 20) translate(35.68 2.498)"/>
                </g>
                <g>
                    <path fill="#FFD01F" d="M7.015 8.901l9.75-5.618c.346-.2.789-.08.988.266.064.11.097.234.097.361v9.324c0 .4-.324.724-.724.724-.088 0-.175-.016-.257-.047l-9.75-3.706c-.373-.142-.561-.56-.42-.934.06-.156.172-.287.316-.37z" transform="translate(-114 -20) translate(114 20)"/>
                    <path fill="#DDC017" d="M19.104 1.023v10.278c0 .4.324.724.724.724.219 0 .426-.099.563-.269l6.463-7.999c.252-.31.203-.767-.108-1.018-.064-.052-.136-.092-.214-.12L20.069.34c-.377-.133-.79.065-.924.442-.027.078-.041.159-.041.241z" transform="translate(-114 -20) translate(114 20)"/>
                    <path fill="#003243" d="M.985 19.698l14.463-3.727c.387-.1.62-.495.52-.882-.058-.228-.224-.413-.444-.496L1.789 9.384c-.374-.141-.792.047-.934.42-.024.064-.04.13-.045.199l-.727 8.935c-.033.399.264.748.662.78.08.007.162 0 .24-.02z" transform="translate(-114 -20) translate(114 20)"/>
                    <path fill="#0A4B61" d="M15.46 18.798l-3.16 8.853c-.134.377-.548.573-.925.439-.097-.035-.185-.09-.259-.161l-6.567-6.335c-.288-.278-.296-.736-.018-1.024.092-.096.21-.165.34-.198l9.726-2.518c.388-.1.783.133.883.52.036.14.03.288-.02.424z" transform="translate(-114 -20) translate(114 20)"/>
                    <path fill="#91C45D" d="M20.431 13.937l6.809-8.432c.25-.31.707-.36 1.018-.108.131.106.221.254.255.42l2.066 10.239c.079.392-.175.774-.567.853-.095.02-.193.019-.287 0l-8.875-1.807c-.392-.08-.645-.462-.565-.854.023-.114.073-.22.146-.31z" transform="translate(-114 -20) translate(114 20)"/>
                    <path fill="#2CA7AD" d="M21.728 16.667l9.929 2.03c.374.076.625.43.572.808l-1.059 7.633c-.055.396-.42.672-.816.617-.167-.023-.32-.103-.434-.227l-8.87-9.662c-.27-.294-.251-.752.044-1.023.17-.157.407-.222.634-.176z" transform="translate(-114 -20) translate(114 20)"/>
                    <path fill="#17708D" d="M16.342 19.935l-3.898 10.87c-.135.376.061.79.437.926.124.044.257.054.386.028l4.085-.813c.344-.069.59-.373.583-.724l-.187-10.057c-.008-.4-.338-.717-.737-.71-.301.006-.567.196-.669.48z" transform="translate(-114 -20) translate(114 20)"/>
                    <path fill="#3FA3C4" d="M19.14 20.27l.152 8.16c.008.4.338.718.738.711.039 0 .078-.005.116-.012l6.343-1.155c.393-.072.654-.449.582-.842-.024-.136-.087-.262-.181-.363l-6.496-7.005c-.272-.293-.73-.31-1.023-.038-.151.14-.235.338-.231.544z" transform="translate(-114 -20) translate(114 20)"/>
                </g>
            </g>
        </g>
    </g>
</svg>
