<?xml version="1.0" encoding="UTF-8"?>
<svg width="64px" height="99px" viewBox="0 0 64 99" version="1.1" xmlns="http://www.w3.org/2000/svg" xmlns:xlink="http://www.w3.org/1999/xlink">
    <!-- Generator: Sketch 55.2 (78181) - https://sketchapp.com -->
    <title>Group</title>
    <desc>Created with Sketch.</desc>
    <defs>
        <linearGradient x1="79.7271964%" y1="50%" x2="32.6410505%" y2="100%" id="linearGradient-1">
            <stop stop-color="#005867" offset="0%"></stop>
            <stop stop-color="#23A7B5" offset="100%"></stop>
        </linearGradient>
        <polygon id="path-2" points="0.026096671 0.301114588 57.3862755 0.301114588 57.3862755 33.5420051 0.026096671 33.5420051"></polygon>
        <polygon id="path-4" points="0.026096671 0.301114588 57.3862755 0.301114588 57.3862755 33.5420051 0.026096671 33.5420051"></polygon>
        <path d="M44.2967807,0.929273444 L3.06507197,24.9516373 C2.67658225,25.178793 2.04029045,25.5411451 1.67770004,25.8147645 L1.67770004,25.8147645 C-0.235012299,27.2638503 -0.407674396,29.1972553 1.2402894,30.5643844 L1.2402894,30.5643844 C1.58977027,30.8544596 2.22957926,31.2200384 2.64428804,31.3945998 L2.64428804,31.3945998 C5.01039826,32.3926008 8.39553459,32.2903162 10.9151222,31.1442123 L10.9151222,31.1442123 C11.3263138,30.9560989 11.9562107,30.5872935 12.3478979,30.3601378 L12.3478979,30.3601378 L53.5776882,6.33680596 L45.0018176,1.34099321 C45.0018176,0.936049396 44.7636079,0.461410078 44.4534556,0.214571819 L44.4534556,0.214571819 C44.6951825,0.428820975 44.639547,0.728576193 44.2967807,0.929273444" id="path-6"></path>
        <path d="M44.2967807,0.929273444 L3.06507197,24.9516373 C2.67658225,25.178793 2.04029045,25.5411451 1.67770004,25.8147645 L1.67770004,25.8147645 C-0.235012299,27.2638503 -0.407674396,29.1972553 1.2402894,30.5643844 L1.2402894,30.5643844 C1.58977027,30.8544596 2.22957926,31.2200384 2.64428804,31.3945998 L2.64428804,31.3945998 C5.01039826,32.3926008 8.39553459,32.2903162 10.9151222,31.1442123 L10.9151222,31.1442123 C11.3263138,30.9560989 11.9562107,30.5872935 12.3478979,30.3601378 L12.3478979,30.3601378 L53.5776882,6.33680596 L45.0018176,1.34099321 C45.0018176,0.936049396 44.7636079,0.461410078 44.4534556,0.214571819 L44.4534556,0.214571819 C44.6951825,0.428820975 44.639547,0.728576193 44.2967807,0.929273444" id="path-8"></path>
        <path d="M44.2967807,0.929273444 L3.06507197,24.9516373 C2.67658225,25.178793 2.04029045,25.5411451 1.67770004,25.8147645 L1.67770004,25.8147645 C-0.235012299,27.2638503 -0.407674396,29.1972553 1.2402894,30.5643844 L1.2402894,30.5643844 C1.58977027,30.8544596 2.22957926,31.2200384 2.64428804,31.3945998 L2.64428804,31.3945998 C5.01039826,32.3926008 8.39553459,32.2903162 10.9151222,31.1442123 L10.9151222,31.1442123 C11.3263138,30.9560989 11.9562107,30.5872935 12.3478979,30.3601378 L12.3478979,30.3601378 L53.5776882,6.33680596 L45.0018176,1.34099321 C45.0018176,0.936049396 44.7636079,0.461410078 44.4534556,0.214571819 L44.4534556,0.214571819 C44.6951825,0.428820975 44.639547,0.728576193 44.2967807,0.929273444" id="path-10"></path>
        <path d="M3.06507197,24.9516373 C2.67658225,25.178793 2.04029045,25.5411451 1.67770004,25.8147645 C-0.235012299,27.2638503 -0.407674396,29.1972553 1.2402894,30.5643844 C1.58977027,30.8544596 2.22957926,31.2200384 2.64428804,31.3945998 C5.01039826,32.3926008 8.39553459,32.2903162 10.9151222,31.1442123 C11.3263138,30.9560989 11.9562107,30.5872935 12.3478979,30.3601378 L53.5776882,6.33680596 L45.0018176,1.34099321 C45.0018176,0.936049396 44.7636079,0.461410078 44.4534556,0.214571819 C44.6951825,0.428820975 44.639547,0.728576193 44.2967807,0.929273444 L3.06507197,24.9516373 Z" id="path-12"></path>
        <path d="M44.2967807,0.929273444 L3.06507197,24.9516373 C2.67658225,25.178793 2.04029045,25.5411451 1.67770004,25.8147645 L1.67770004,25.8147645 C-0.235012299,27.2638503 -0.407674396,29.1972553 1.2402894,30.5643844 L1.2402894,30.5643844 C1.58977027,30.8544596 2.22957926,31.2200384 2.64428804,31.3945998 L2.64428804,31.3945998 C5.01039826,32.3926008 8.39553459,32.2903162 10.9151222,31.1442123 L10.9151222,31.1442123 C11.3263138,30.9560989 11.9562107,30.5872935 12.3478979,30.3601378 L12.3478979,30.3601378 L53.5776882,6.33680596 L45.0018176,1.34099321 C45.0018176,0.936049396 44.7636079,0.461410078 44.4534556,0.214571819 L44.4534556,0.214571819 C44.6951825,0.428820975 44.639547,0.728576193 44.2967807,0.929273444" id="path-14"></path>
        <path d="M3.06507197,24.9516373 C2.67658225,25.178793 2.04029045,25.5411451 1.67770004,25.8147645 C-0.235012299,27.2638503 -0.407674396,29.1972553 1.2402894,30.5643844 C1.58977027,30.8544596 2.22957926,31.2200384 2.64428804,31.3945998 C5.01039826,32.3926008 8.39553459,32.2903162 10.9151222,31.1442123 C11.3263138,30.9560989 11.9562107,30.5872935 12.3478979,30.3601378 L53.5776882,6.33680596 L45.0018176,1.34099321 C45.0018176,0.936049396 44.7636079,0.461410078 44.4534556,0.214571819 C44.6951825,0.428820975 44.639547,0.728576193 44.2967807,0.929273444 L3.06507197,24.9516373 Z" id="path-16"></path>
        <linearGradient x1="100%" y1="50%" x2="20.8029152%" y2="94.165098%" id="linearGradient-18">
            <stop stop-color="#005867" offset="0%"></stop>
            <stop stop-color="#23A7B5" offset="100%"></stop>
        </linearGradient>
        <path d="M15.0813384,53.8610898 L53.8811823,31.3574816 L56.8640799,1.72763425 L2.49535062,0.138923322 C0.96412687,33.4369564 0.198514998,50.085973 0.198514998,50.085973 C0.198514998,50.085973 5.15945613,51.3443452 15.0813384,53.8610898 Z" id="path-19"></path>
    </defs>
    <g id="K-site-6" stroke="none" stroke-width="1" fill="none" fill-rule="evenodd">
        <g id="Krystal" transform="translate(-346.000000, -1966.000000)">
            <g id="Group" transform="translate(342.000000, 1965.000000)">
                <g id="Group-85" transform="translate(4.277349, 23.820622)">
                    <polygon id="Fill-3" fill="#1A2E35" points="57.8181098 18.1782755 60.5494876 19.6541033 60.5494876 24.086215 57.8181098 22.6088445"></polygon>
                    <g id="Group-26" transform="translate(0.003946, 0.000000)">
                        <path d="M55.7470824,6.65395538 L47.1340568,11.645236 L47.1340568,1.66235241 C47.1340568,1.20810139 46.8356714,0.666804393 46.4675879,0.453702955 C46.1001468,0.240601517 45.4841048,0.252207647 45.091932,0.479171962 L2.4857842,25.1699234 C0.839044108,26.1242052 0.015834657,27.3747657 0.015834657,28.6256486 L0.015834657,70.30455 C0.015834657,71.5554329 0.839044108,72.8059934 2.4857842,73.7602752 L2.54681026,73.795416 C5.83996925,75.7039795 11.1794284,75.7039795 14.4729086,73.795416 L57.0787353,49.1046645 C57.4693021,48.878345 57.7885647,48.3231851 57.7885647,47.870546 L57.7885647,7.01439019 C57.7885647,7.01439019 57.4554909,6.82159948 57.1227383,6.62848637 C56.7549759,6.41538493 56.1392551,6.42666867 55.7470824,6.65395538" id="Fill-4" fill="url(#linearGradient-1)"></path>
                        <g id="Group-8">
                            <mask id="mask-3" fill="white">
                                <use xlink:href="#path-2"></use>
                            </mask>
                            <g id="Clip-7"></g>
                            <path d="M2.48584844,32.0812447 C-0.793820584,30.180741 -0.793820584,27.0706206 2.48584844,25.1701169 L45.0919963,0.479365398 C45.484169,0.25207869 46.100211,0.24047256 46.4676522,0.453573998 C46.8357357,0.666997829 46.8158219,1.02388632 46.4236492,1.25117303 L5.00750954,25.2520046 C4.61533679,25.4792913 3.97520553,25.8419828 3.61322463,26.1150493 C1.69122488,27.5638811 1.51649763,29.4959793 3.17287341,30.8619563 C3.52297029,31.1504976 4.16534989,31.5154459 4.58289662,31.690505 C6.95873756,32.6863754 10.3617435,32.5864338 12.8911131,31.4409732 C13.3035208,31.254308 13.9381919,30.8825894 14.3303646,30.6553027 L55.7471466,6.65382642 C56.1389981,6.42653971 56.7550402,6.41525598 57.1228025,6.62835742 C57.4905648,6.84145885 57.4709722,7.19866974 57.0787995,7.42563405 L14.4726517,32.1163855 C11.1929827,34.0172117 5.82622233,34.0172117 2.54655331,32.1163855 L2.48584844,32.0812447 Z" id="Fill-6" fill="#00DFBF" mask="url(#mask-3)"></path>
                        </g>
                        <g id="Group-11">
                            <mask id="mask-5" fill="white">
                                <use xlink:href="#path-4"></use>
                            </mask>
                            <g id="Clip-10"></g>
                            <path d="M2.48584844,32.0812447 C-0.793820584,30.180741 -0.793820584,27.0706206 2.48584844,25.1701169 L45.0919963,0.479365398 C45.484169,0.25207869 46.100211,0.24047256 46.4676522,0.453573998 C46.8357357,0.666997829 46.8158219,1.02388632 46.4236492,1.25117303 L5.00750954,25.2520046 C4.61533679,25.4792913 3.97520553,25.8419828 3.61322463,26.1150493 C1.69122488,27.5638811 1.51649763,29.4959793 3.17287341,30.8619563 C3.52297029,31.1504976 4.16534989,31.5154459 4.58289662,31.690505 C6.95873756,32.6863754 10.3617435,32.5864338 12.8911131,31.4409732 C13.3035208,31.254308 13.9381919,30.8825894 14.3303646,30.6553027 L55.7471466,6.65382642 C56.1389981,6.42653971 56.7550402,6.41525598 57.1228025,6.62835742 C57.4905648,6.84145885 57.4709722,7.19866974 57.0787995,7.42563405 L14.4726517,32.1163855 C11.1929827,34.0172117 5.82622233,34.0172117 2.54655331,32.1163855 L2.48584844,32.0812447 Z" id="Fill-9" fill="#000000" mask="url(#mask-5)"></path>
                        </g>
                        <path d="M1.41814931,34.5687607 C1.3808913,34.5687607 1.34331209,34.5555426 1.31279906,34.5291065 C1.09695952,34.3408292 0.901354929,34.1422355 0.731124336,33.938161 C0.674594932,33.8701362 0.683588246,33.7685826 0.751359293,33.7111967 C0.81913034,33.6538108 0.920305127,33.6628378 0.9777981,33.7315074 C1.13678705,33.9223638 1.32018642,34.1087066 1.52349957,34.2860225 C1.59030704,34.3443756 1.59769441,34.4462516 1.53923787,34.5133092 C1.50744008,34.550062 1.46311588,34.5687607 1.41814931,34.5687607" id="Fill-12" fill="#F5F5F5"></path>
                        <path d="M51.622106,13.8304768 C51.5668614,13.8304768 51.5129015,13.8017838 51.483352,13.7498786 C51.4387067,13.6728268 51.4650442,13.5741747 51.5418086,13.5296846 L52.9441232,12.7169331 C53.0205664,12.6727653 53.1194929,12.6985567 53.1634959,12.7759309 C53.2078201,12.8533051 53.1818037,12.9516348 53.1047181,12.9964474 L51.7024035,13.8088765 C51.6770295,13.8237065 51.6497284,13.8304768 51.622106,13.8304768 M48.8181191,15.4559797 C48.7628745,15.4559797 48.7082722,15.4269644 48.6787227,15.3753816 C48.6343985,15.2980074 48.6604149,15.1996777 48.7378216,15.1548651 L50.1398151,14.342436 C50.2156159,14.2979459 50.3151847,14.3237373 50.3585454,14.4014339 C50.4035119,14.4784857 50.3768532,14.5771378 50.30041,14.6216279 L48.8984165,15.4343794 C48.8727214,15.4488871 48.845099,15.4559797 48.8181191,15.4559797 M46.0128474,17.0811603 C45.957924,17.0811603 45.9033217,17.0524673 45.8740934,17.0005621 C45.829448,16.9235103 45.8561068,16.8248582 45.93255,16.7803681 L47.3348646,15.9676166 C47.4113078,15.9231264 47.5102342,15.9489178 47.5545584,16.0266144 C47.5988826,16.1036662 47.5725451,16.2023183 47.4954595,16.2468085 L46.0931449,17.05956 C46.0677709,17.07439 46.0401485,17.0811603 46.0128474,17.0811603 M43.2088605,18.7063408 C43.1532946,18.7063408 43.0993348,18.6776479 43.0697853,18.6257427 C43.0251399,18.5486909 43.0511563,18.4500388 43.128563,18.4055486 L44.5305565,17.5927971 C44.607642,17.5486294 44.7052837,17.5744208 44.7499291,17.6521174 C44.7945745,17.7291692 44.7682369,17.8274989 44.6911514,17.8723114 L43.2891579,18.6847405 C43.2637839,18.6995706 43.2358404,18.7063408 43.2088605,18.7063408 M40.40391,20.3318438 C40.3489865,20.3318438 40.2943843,20.3028284 40.265156,20.2512456 C40.2208318,20.1738714 40.2471694,20.0755417 40.3236125,20.0307292 L41.7259272,19.2183001 C41.8026915,19.1738099 41.9003332,19.1996013 41.9449786,19.2772979 C41.9899452,19.3543497 41.9632864,19.4530018 41.8865221,19.497492 L40.4842074,20.3102435 C40.4588334,20.3247511 40.4312111,20.3318438 40.40391,20.3318438 M37.5992807,21.9570243 C37.544036,21.9570243 37.4897549,21.928009 37.4602055,21.8764262 C37.4158813,21.799052 37.44254,21.7007223 37.5189832,21.6559097 L38.9212979,20.8434806 C38.997741,20.7986681 39.0966675,20.8251043 39.1406705,20.9024785 C39.1849947,20.9795303 39.1589783,21.0781824 39.0818928,21.1226725 L37.6795781,21.935424 C37.6542041,21.9499317 37.626903,21.9570243 37.5992807,21.9570243 M34.7949725,23.5822049 C34.7394067,23.5822049 34.685768,23.5535119 34.6562185,23.5016068 C34.6115732,23.4245549 34.6375895,23.3259028 34.7146751,23.2814127 L36.1173109,22.4686612 C36.1934329,22.4244934 36.2920382,22.4502848 36.3360412,22.5279814 C36.3810078,22.6050332 36.354349,22.7033629 36.2779058,22.7481755 L34.87527,23.5606046 C34.849896,23.5754346 34.8219525,23.5822049 34.7949725,23.5822049 M31.9903432,25.2077078 C31.9354198,25.2077078 31.8808175,25.1786925 31.851268,25.1271097 C31.8069439,25.0497355 31.8336026,24.9514058 31.9100458,24.9065932 L33.3123604,24.0938418 C33.3884824,24.0493516 33.4874089,24.0757878 33.5317331,24.153162 C33.5760573,24.2302138 33.5493985,24.3285435 33.4729553,24.3733561 L32.0706407,25.1861075 C32.0452667,25.2006152 32.0179656,25.2077078 31.9903432,25.2077078 M29.1853927,26.8328884 C29.1304693,26.8328884 29.0765094,26.8038731 29.0469599,26.7522903 C29.0019934,26.6749161 29.0283309,26.5765864 29.1050953,26.5317738 L30.5077311,25.7193447 C30.5848167,25.6751769 30.6827796,25.7009683 30.7267826,25.7783425 C30.7714279,25.8553943 30.7454116,25.9540464 30.668326,25.9985366 L29.2656902,26.8112881 C29.2403162,26.8257957 29.2130151,26.8328884 29.1853927,26.8328884 M26.3814058,28.4580689 C26.3261612,28.4580689 26.2715589,28.429376 26.2420094,28.3774708 C26.1980064,28.300419 26.2240228,28.2017669 26.3011083,28.1572767 L27.703423,27.3445253 C27.7801874,27.3000351 27.8787926,27.3261489 27.9227956,27.4035231 C27.967441,27.4805749 27.9407823,27.579227 27.8640179,27.6237172 L26.4617032,28.4364686 C26.4363293,28.4512987 26.4083857,28.4580689 26.3814058,28.4580689 M23.5767765,30.0832495 C23.5215318,30.0832495 23.4672508,30.0545566 23.4377013,30.0026514 C23.3930559,29.9255996 23.4197147,29.8269475 23.496479,29.7824573 L24.8984725,28.9697058 C24.9749157,28.9252157 25.0738421,28.9513295 25.1178451,29.029026 C25.1621693,29.1060779 25.1358318,29.20473 25.0590674,29.2492201 L23.6570739,30.0616492 C23.6316999,30.0764793 23.6043988,30.0832495 23.5767765,30.0832495 M20.7721472,31.7087524 C20.7169025,31.7087524 20.6626215,31.6797371 20.633072,31.6281543 C20.5884266,31.5507801 20.6147642,31.4524504 20.6918497,31.4076379 L22.0938432,30.5952088 C22.1702864,30.5507186 22.2688916,30.57651 22.3132158,30.6542066 C22.3578612,30.7312584 22.3318448,30.8299105 22.2544381,30.8744007 L20.8524446,31.6871521 C20.8270706,31.7016598 20.7994483,31.7087524 20.7721472,31.7087524 M17.9675179,33.333933 C17.9122732,33.333933 17.8579921,33.3052401 17.8287639,33.2533349 C17.7841185,33.1762831 17.8104561,33.077631 17.8872204,33.0331408 L19.2892139,32.2203893 C19.3656571,32.1758992 19.4642623,32.202013 19.5085865,32.2793872 C19.5532319,32.356439 19.5268943,32.4550911 19.4498088,32.4995812 L18.0478153,33.3123327 C18.0224413,33.3271628 17.994819,33.333933 17.9675179,33.333933 M15.1628886,34.9591136 C15.1076439,34.9591136 15.0533628,34.9304206 15.0238134,34.8785154 C14.9794892,34.8014636 15.0058267,34.7028115 15.0825911,34.6583214 L16.4849058,33.8455699 C16.5616701,33.8010797 16.6599542,33.8271935 16.7042784,33.9048901 C16.7486026,33.9819419 16.722265,34.080594 16.6455007,34.1250842 L15.243186,34.9375133 C15.217812,34.9523433 15.1901897,34.9591136 15.1628886,34.9591136 M4.24147187,36.1197265 C4.22444881,36.1197265 4.20678337,36.116825 4.1900815,36.1110219 C3.65016145,35.9275806 3.14203919,35.7077089 2.68016826,35.45721 C2.60179795,35.4149765 2.57289087,35.3169692 2.61464555,35.2389502 C2.65736379,35.1602865 2.75564787,35.1309488 2.83241223,35.1735046 C3.27886605,35.4152989 3.77028644,35.628078 4.29286224,35.8057162 C4.37701396,35.8344092 4.42198054,35.9259686 4.39371583,36.0101131 C4.37091136,36.0771707 4.30827935,36.1197265 4.24147187,36.1197265 M12.222396,36.2931737 C12.1520554,36.2931737 12.0878174,36.2467492 12.0675825,36.1758228 C12.0434932,36.0900664 12.0929565,36.0010861 12.1787141,35.9769067 C12.7086773,35.826027 13.2123029,35.6416185 13.6751374,35.4291618 C13.7547925,35.3917643 13.850507,35.4272275 13.8877651,35.5084704 C13.9247019,35.5893909 13.889371,35.6851415 13.8087524,35.7222166 C13.3311431,35.9417659 12.8117792,36.1316551 12.2657566,36.2870482 C12.251303,36.2912393 12.2365283,36.2931737 12.222396,36.2931737 M7.40968803,36.7487143 C7.40551256,36.7487143 7.40165829,36.7487143 7.39716163,36.7483919 C6.84632113,36.7064809 6.30029847,36.6332978 5.77483196,36.5304546 C5.68811072,36.5133678 5.63093893,36.4289009 5.64796199,36.3415326 C5.66498505,36.2538418 5.75010035,36.1964559 5.8365004,36.2141875 C6.34944051,36.3144516 6.88293676,36.3860227 7.42157205,36.4269666 C7.51022044,36.4337368 7.57638554,36.511111 7.56964055,36.599769 C7.56321676,36.6845582 7.49287619,36.7487143 7.40968803,36.7487143 M9.02784223,36.7812759 C8.94176337,36.7812759 8.87045923,36.7129287 8.86724733,36.6258827 C8.86403543,36.5369024 8.93341243,36.4624298 9.022382,36.4592058 C9.56037492,36.4401847 10.0964407,36.3908586 10.6158046,36.3121949 C10.704453,36.3012335 10.7853928,36.3595865 10.7982404,36.4479221 C10.8114092,36.5359352 10.7510255,36.6181453 10.6633407,36.6313634 C10.1324139,36.7113168 9.58414296,36.7619324 9.03362365,36.7812759 C9.03169651,36.7812759 9.02976937,36.7812759 9.02784223,36.7812759" id="Fill-14" fill="#F5F5F5"></path>
                        <path d="M55.1250662,12.6065459 C55.036739,12.6065459 54.9644713,12.53433 54.9644713,12.4453496 L54.9644713,11.9185603 L54.5099877,12.181955 C54.432581,12.2258004 54.3342969,12.200009 54.2906151,12.1229572 C54.2462909,12.0459053 54.2729497,11.9472532 54.3493928,11.9027631 L55.0447687,11.4997725 C55.094232,11.4710795 55.1562216,11.4710795 55.2053636,11.4997725 C55.2548269,11.5284654 55.2856611,11.5816602 55.2856611,11.6393684 L55.2856611,12.4453496 C55.2856611,12.53433 55.2137146,12.6065459 55.1250662,12.6065459" id="Fill-16" fill="#F5F5F5"></path>
                        <path d="M55.4644713,15.8348876 C55.1894713,15.8348876 54.9644713,15.7626717 54.9644713,15.6736914 L54.9644713,14.0594721 C54.9644713,13.9704918 55.1894713,13.8982759 55.4644713,13.8982759 C55.7404713,13.8982759 55.9644713,13.9704918 55.9644713,14.0594721 L55.9644713,15.6736914 C55.9644713,15.7626717 55.7404713,15.8348876 55.4644713,15.8348876 M55.4644713,19.063326 C55.1894713,19.063326 54.9644713,18.9914325 54.9644713,18.9021298 L54.9644713,17.2879106 C54.9644713,17.1989302 55.1894713,17.1267143 55.4644713,17.1267143 C55.7404713,17.1267143 55.9644713,17.1989302 55.9644713,17.2879106 L55.9644713,18.9021298 C55.9644713,18.9914325 55.7404713,19.063326 55.4644713,19.063326 M55.4644713,22.2917644 C55.1894713,22.2917644 54.9644713,22.2195485 54.9644713,22.1305682 L54.9644713,20.516349 C54.9644713,20.4273687 55.1894713,20.3551527 55.4644713,20.3551527 C55.7404713,20.3551527 55.9644713,20.4273687 55.9644713,20.516349 L55.9644713,22.1305682 C55.9644713,22.2195485 55.7404713,22.2917644 55.4644713,22.2917644 M55.4644713,25.5202029 C55.1894713,25.5202029 54.9644713,25.447987 54.9644713,25.3590066 L54.9644713,23.7447874 C54.9644713,23.6558071 55.1894713,23.5835912 55.4644713,23.5835912 C55.7404713,23.5835912 55.9644713,23.6558071 55.9644713,23.7447874 L55.9644713,25.3590066 C55.9644713,25.447987 55.7404713,25.5202029 55.4644713,25.5202029 M55.4644713,28.7486413 C55.1894713,28.7486413 54.9644713,28.6767478 54.9644713,28.587445 L54.9644713,26.9732258 C54.9644713,26.8839231 55.1894713,26.8120296 55.4644713,26.8120296 C55.7404713,26.8120296 55.9644713,26.8839231 55.9644713,26.9732258 L55.9644713,28.587445 C55.9644713,28.6767478 55.7404713,28.7486413 55.4644713,28.7486413 M55.4644713,31.9770797 C55.1894713,31.9770797 54.9644713,31.9048638 54.9644713,31.8158835 L54.9644713,30.2016643 C54.9644713,30.1126839 55.1894713,30.040468 55.4644713,30.040468 C55.7404713,30.040468 55.9644713,30.1126839 55.9644713,30.2016643 L55.9644713,31.8158835 C55.9644713,31.9048638 55.7404713,31.9770797 55.4644713,31.9770797 M55.4644713,35.2055181 C55.1894713,35.2055181 54.9644713,35.1333022 54.9644713,35.0443219 L54.9644713,33.4301027 C54.9644713,33.3411224 55.1894713,33.2689064 55.4644713,33.2689064 C55.7404713,33.2689064 55.9644713,33.3411224 55.9644713,33.4301027 L55.9644713,35.0443219 C55.9644713,35.1333022 55.7404713,35.2055181 55.4644713,35.2055181 M55.4644713,38.4339566 C55.1894713,38.4339566 54.9644713,38.3617406 54.9644713,38.2727603 L54.9644713,36.6585411 C54.9644713,36.5692384 55.1894713,36.4973449 55.4644713,36.4973449 C55.7404713,36.4973449 55.9644713,36.5692384 55.9644713,36.6585411 L55.9644713,38.2727603 C55.9644713,38.3617406 55.7404713,38.4339566 55.4644713,38.4339566 M55.4644713,41.662395 C55.1894713,41.662395 54.9644713,41.5901791 54.9644713,41.5011987 L54.9644713,39.8869795 C54.9644713,39.7979992 55.1894713,39.7257833 55.4644713,39.7257833 C55.7404713,39.7257833 55.9644713,39.7979992 55.9644713,39.8869795 L55.9644713,41.5011987 C55.9644713,41.5901791 55.7404713,41.662395 55.4644713,41.662395 M55.4644713,44.8908334 C55.1894713,44.8908334 54.9644713,44.8186175 54.9644713,44.7296372 L54.9644713,43.115418 C54.9644713,43.0261152 55.1894713,42.9542217 55.4644713,42.9542217 C55.7404713,42.9542217 55.9644713,43.0261152 55.9644713,43.115418 L55.9644713,44.7296372 C55.9644713,44.8186175 55.7404713,44.8908334 55.4644713,44.8908334" id="Fill-18" fill="#F5F5F5"></path>
                        <path d="M54.4296903,47.71396 C54.3744456,47.71396 54.3204858,47.6852671 54.2906151,47.6333619 C54.2462909,47.5563101 54.2729497,47.457658 54.3493928,47.4131678 L54.9644713,47.0566017 L54.9644713,46.3437919 C54.9644713,46.2548116 55.036739,46.1825957 55.1250662,46.1825957 C55.2137146,46.1825957 55.2856611,46.2548116 55.2856611,46.3437919 L55.2856611,47.1497731 C55.2856611,47.2074814 55.2548269,47.2606762 55.2053636,47.2893691 L54.5099877,47.6923597 C54.4846137,47.7071898 54.4573126,47.71396 54.4296903,47.71396" id="Fill-20" fill="#F5F5F5"></path>
                        <path d="M51.6252537,49.3391406 C51.5696879,49.3391406 51.515728,49.3104476 51.4861785,49.2585424 C51.4415331,49.1814906 51.4678707,49.0828385 51.5449562,49.0383484 L52.9469497,48.2255969 C53.0237141,48.1811067 53.1223193,48.2072205 53.1663223,48.2845947 C53.2109677,48.3619689 53.1846302,48.4602986 53.1075446,48.5051112 L51.7055511,49.3175403 C51.6801771,49.3323703 51.6522336,49.3391406 51.6252537,49.3391406 L51.6252537,49.3391406 Z M48.8206244,50.9646435 C48.7657009,50.9646435 48.7110987,50.9356282 48.6815492,50.8840454 C48.637225,50.8066712 48.6635626,50.7083415 48.7403269,50.6635289 L50.1429628,49.8510998 C50.2190848,49.8062873 50.3180112,49.8327235 50.3620142,49.9100977 C50.4063384,49.9871495 50.3800008,50.0858016 50.3035577,50.1302917 L48.9009218,50.9430432 C48.8752266,50.9575509 48.8479255,50.9646435 48.8206244,50.9646435 L48.8206244,50.9646435 Z M46.0159951,52.5898241 C45.9607504,52.5898241 45.9067905,52.5611311 45.8772411,52.5092259 C45.8325957,52.4321741 45.8589333,52.333522 45.9356976,52.2890319 L47.3376911,51.4762804 C47.4141343,51.4317902 47.5130607,51.4575816 47.5570637,51.5352782 C47.6017091,51.61233 47.5756927,51.7109821 47.498286,51.7554723 L46.0962925,52.5682238 C46.0709185,52.5830538 46.0436174,52.5898241 46.0159951,52.5898241 L46.0159951,52.5898241 Z M43.2116869,54.2150046 C43.1561211,54.2150046 43.1021612,54.1863117 43.0726118,54.1344065 C43.0279664,54.0573547 43.0539828,53.9587026 43.1313895,53.9142124 L44.5337042,53.1014609 C44.6101473,53.0572932 44.7081102,53.0830846 44.7527556,53.1607812 C44.797401,53.237833 44.7707422,53.3361627 44.694299,53.3809752 L43.2919844,54.1934043 C43.2666104,54.2082344 43.2386669,54.2150046 43.2116869,54.2150046 L43.2116869,54.2150046 Z M40.4067364,55.8405076 C40.351813,55.8405076 40.2972107,55.8114922 40.2679825,55.7599094 C40.2233371,55.6825352 40.2499958,55.5842055 40.326439,55.539393 L41.7287536,54.7266415 C41.805518,54.6824737 41.9041233,54.7082651 41.9484475,54.7859617 C41.9927717,54.8630135 41.9664341,54.9613432 41.8893485,55.0061558 L40.4870339,55.8189073 C40.4616599,55.8334149 40.4340376,55.8405076 40.4067364,55.8405076 L40.4067364,55.8405076 Z M37.6027495,57.4656881 C37.5471837,57.4656881 37.4932238,57.4366728 37.4636743,57.38509 C37.4190289,57.3077158 37.4453665,57.2093861 37.5224521,57.1645735 L38.9241243,56.3521445 C39.0005675,56.3073319 39.099494,56.3334457 39.143497,56.4111423 C39.1878212,56.4881941 39.1618048,56.5868462 39.0847192,56.6313364 L37.683047,57.4440878 C37.657673,57.4585955 37.6297295,57.4656881 37.6027495,57.4656881 L37.6027495,57.4656881 Z M34.797799,59.0908687 C34.7425544,59.0908687 34.6882733,59.0618534 34.6587238,59.0102706 C34.6143996,58.9332188 34.640416,58.8345666 34.7175016,58.7900765 L36.1201374,57.977325 C36.1962594,57.9331572 36.2948647,57.9589486 36.3388677,58.0366452 C36.3838342,58.113697 36.3571755,58.2120267 36.2807323,58.2565169 L34.8780965,59.0692684 C34.8527225,59.0840984 34.824779,59.0908687 34.797799,59.0908687 L34.797799,59.0908687 Z M31.9931697,60.7163716 C31.9379251,60.7163716 31.883644,60.6873563 31.8540945,60.6357735 C31.8097703,60.5583993 31.8364291,60.4600696 31.9128723,60.4155794 L33.3151869,59.602828 C33.3922725,59.557693 33.4902353,59.5844516 33.5345595,59.6618258 C33.5788837,59.7388776 33.5528674,59.8372073 33.4757818,59.8816975 L32.0734671,60.6941265 C32.0480932,60.7089566 32.020792,60.7163716 31.9931697,60.7163716 L31.9931697,60.7163716 Z M29.1885404,62.3418746 C29.1332957,62.3418746 29.0793359,62.3128593 29.0497864,62.2612765 C29.0048198,62.1839023 29.0311574,62.0855725 29.1082429,62.0410824 L30.5105576,61.2283309 C30.5876431,61.183196 30.685606,61.2099545 30.729609,61.2873287 C30.7742544,61.3643805 30.748238,61.4630326 30.6711525,61.5075228 L29.2688378,62.3196295 C29.2431427,62.3344596 29.2158415,62.3418746 29.1885404,62.3418746 L29.1885404,62.3418746 Z M26.3839111,63.9667327 C26.3289876,63.9667327 26.2743854,63.9380398 26.2448359,63.8861346 C26.2008329,63.8090828 26.2268493,63.7107531 26.3036136,63.6662629 L27.7062495,62.8535115 C27.7826926,62.8086989 27.8816191,62.8351351 27.9256221,62.9125093 C27.9699463,62.9895611 27.9436087,63.0878908 27.8668444,63.132381 L26.4642085,63.9448101 C26.4388345,63.9596401 26.4112122,63.9667327 26.3839111,63.9667327 L26.3839111,63.9667327 Z M23.579603,65.5919133 C23.5243583,65.5919133 23.4703984,65.5632204 23.440849,65.5113152 C23.3958824,65.4342634 23.42222,65.3359337 23.4993055,65.2914435 L24.901299,64.478692 C24.9777421,64.4335571 25.0766686,64.460638 25.1206716,64.5373675 C25.1649958,64.6147417 25.1386582,64.7133938 25.0618939,64.7578839 L23.6599004,65.570313 C23.6345264,65.5851431 23.6072253,65.5919133 23.579603,65.5919133 L23.579603,65.5919133 Z M20.7749736,67.2174162 C20.719729,67.2174162 20.6654479,67.1887233 20.6358985,67.1368181 C20.5912531,67.0597663 20.6175906,66.9614366 20.6946762,66.9169464 L22.0966697,66.1035502 C22.1731128,66.0593824 22.2717181,66.0854962 22.3160423,66.1628704 C22.3610089,66.2399222 22.3346713,66.3385743 22.2572646,66.3830645 L20.8552711,67.195816 C20.8298971,67.210646 20.8022748,67.2174162 20.7749736,67.2174162 L20.7749736,67.2174162 Z M17.9703443,68.8429192 C17.9150997,68.8429192 17.8608186,68.8139039 17.8315903,68.7623211 C17.786945,68.6849469 17.8132825,68.5862948 17.8900469,68.5418046 L19.2923615,67.7293755 C19.3694471,67.684563 19.4670888,67.7109992 19.5117342,67.788051 C19.5563796,67.8654252 19.530042,67.9640773 19.4529564,68.0085674 L18.0506418,68.8209965 C18.0252678,68.8358266 17.9976455,68.8429192 17.9703443,68.8429192 L17.9703443,68.8429192 Z M15.1660362,70.4680998 C15.1107916,70.4680998 15.0565105,70.4390844 15.026961,70.3875016 C14.9826368,70.3101274 15.0089744,70.2114753 15.0857388,70.1673076 L16.4877322,69.3542337 C16.5644966,69.3100659 16.6627807,69.3361797 16.7071049,69.4135539 C16.7514291,69.4906057 16.7250915,69.5892578 16.6483271,69.633748 L15.2463337,70.4461771 C15.2209597,70.4610071 15.1933373,70.4680998 15.1660362,70.4680998 L15.1660362,70.4680998 Z M4.24461953,71.6312919 C4.22759647,71.6312919 4.20993103,71.6283903 4.19322916,71.6229097 C3.65202435,71.4388236 3.14422328,71.2189519 2.68299473,70.9690977 C2.60462442,70.9271867 2.57571734,70.8295017 2.61747202,70.7511604 C2.65954788,70.6721742 2.75751077,70.6438037 2.8352387,70.6853923 C3.28072895,70.9265419 3.77214934,71.1393209 4.2960099,71.3169592 C4.38016162,71.3459745 4.4251282,71.437534 4.39686349,71.5216784 C4.37405902,71.5890585 4.31142701,71.6312919 4.24461953,71.6312919 L4.24461953,71.6312919 Z M12.2258648,71.8028047 C12.1558454,71.8028047 12.0912863,71.7563802 12.0710513,71.6857762 C12.0469621,71.6000198 12.0964253,71.5110395 12.1818618,71.4862152 C12.7127885,71.3353356 13.216093,71.1506047 13.6782851,70.9384704 C13.7572978,70.9004281 13.8539759,70.936536 13.8909127,71.0174566 C13.9278495,71.0986995 13.8925187,71.19445 13.8119,71.2312028 C13.3352544,71.4507521 12.8162117,71.6406413 12.2695466,71.7966792 C12.2547719,71.8005479 12.2399972,71.8028047 12.2258648,71.8028047 L12.2258648,71.8028047 Z M7.41379926,72.2599572 C7.40962379,72.2599572 7.40576952,72.2599572 7.40159405,72.2596348 C6.85107474,72.2180462 6.30505208,72.1445407 5.778622,72.0420199 C5.69190076,72.0249331 5.63472897,71.9404663 5.65175203,71.8527755 C5.6684539,71.7654071 5.75260563,71.7093109 5.84029044,71.7254305 C6.35387293,71.8260169 6.88736918,71.8972657 7.42536209,71.9375647 C7.51401048,71.9449798 7.58049677,72.0220316 7.57375178,72.1106895 C7.56732798,72.1954787 7.49698742,72.2599572 7.41379926,72.2599572 L7.41379926,72.2599572 Z M9.03195346,72.2921965 C8.9458746,72.2921965 8.87457046,72.2235269 8.87135856,72.1361585 C8.86814666,72.0475006 8.93752366,71.9727055 9.02649323,71.969804 C9.56255901,71.9507828 10.098946,71.9014568 10.6199158,71.822793 C10.7079218,71.8111869 10.789504,71.8698623 10.8023516,71.9578755 C10.8155204,72.0458886 10.7551367,72.1280987 10.6674519,72.1413168 C10.1349192,72.2219149 9.58632705,72.2725305 9.03773488,72.2921965 L9.03195346,72.2921965 Z" id="Fill-22" fill="#F5F5F5"></path>
                        <path d="M1.41814931,70.0791655 C1.3808913,70.0791655 1.34331209,70.0662698 1.31279906,70.0395112 C1.09695952,69.8515564 0.901354929,69.6526402 0.731124336,69.4485657 C0.674594932,69.3805409 0.683588246,69.2789873 0.751359293,69.2216014 C0.81913034,69.1645379 0.920305127,69.1729202 0.9777981,69.2415898 C1.13678705,69.4324461 1.32018642,69.6191114 1.52349957,69.7961048 C1.59030704,69.8547803 1.59769441,69.9563339 1.53955906,70.0233916 C1.50744008,70.0601443 1.46311588,70.0791655 1.41814931,70.0791655" id="Fill-24" fill="#F5F5F5"></path>
                    </g>
                    <g id="Group-45" transform="translate(2.280094, 0.454457)">
                        <g id="Group-29">
                            <mask id="mask-7" fill="white">
                                <use xlink:href="#path-6"></use>
                            </mask>
                            <g id="Clip-28"></g>
                            <path d="M45.0033844,9.12917586 L45.0033844,4.26694616 C45.0033844,3.90330339 44.7501466,3.46093052 44.4377561,3.2789478 L44.2423922,3.16504727 C43.9303214,2.98306455 43.4241657,2.98306455 43.1117752,3.16504727 L-1.40275164,29.1004883 L5.22683339,32.9624584 L44.4377561,10.1174969 C44.7501466,9.93551417 45.0033844,9.49314129 45.0033844,9.12917586" id="Fill-27" fill="#E1E1E1" mask="url(#mask-7)"></path>
                        </g>
                        <g id="Group-32">
                            <mask id="mask-9" fill="white">
                                <use xlink:href="#path-8"></use>
                            </mask>
                            <g id="Clip-31"></g>
                            <path d="M-1.40278361,29.1001979 L-0.0764829141,29.8726564 L44.4377241,3.93753809 C44.7501146,3.75587803 44.7501146,3.46096278 44.4377241,3.27898007 L44.2423602,3.16507954 C43.9302894,2.98309682 43.4241337,2.98309682 43.1117432,3.16507954 L-1.40278361,29.1001979 Z" id="Fill-30" fill="#FFFFFF" mask="url(#mask-9)"></path>
                        </g>
                        <g id="Group-35">
                            <mask id="mask-11" fill="white">
                                <use xlink:href="#path-10"></use>
                            </mask>
                            <g id="Clip-34"></g>
                            <path d="M47.6553143,5.8117342 C47.6553143,5.44776877 47.4017568,5.00539589 47.0896861,4.82373583 L46.8943221,4.7098353 C46.5822513,4.52785259 46.0760956,4.52785259 45.7637051,4.7098353 L1.2491783,30.6452763 L7.87844359,34.5072464 L47.0896861,11.6622849 C47.4020766,11.4803022 47.6553143,11.0376067 47.6553143,10.6739639 L47.6553143,5.8117342 Z" id="Fill-33" fill="#E1E1E1" mask="url(#mask-11)"></path>
                        </g>
                        <g id="Group-38">
                            <mask id="mask-13" fill="white">
                                <use xlink:href="#path-12"></use>
                            </mask>
                            <g id="Clip-37"></g>
                            <path d="M1.2491783,30.6451473 L2.575479,31.4172831 L47.0896861,5.48248745 C47.4017568,5.30050474 47.4017568,5.00558948 47.0896861,4.82360677 L46.8943221,4.70970624 C46.5822513,4.52804619 46.0760956,4.52804619 45.7637051,4.70970624 L1.2491783,30.6451473 Z" id="Fill-36" fill="#FFFFFF" mask="url(#mask-13)"></path>
                        </g>
                        <g id="Group-41">
                            <mask id="mask-15" fill="white">
                                <use xlink:href="#path-14"></use>
                            </mask>
                            <g id="Clip-40"></g>
                            <path d="M50.3066367,7.35571557 C50.3066367,6.99175014 50.053399,6.54937726 49.7410085,6.36771721 L49.5459643,6.25381668 C49.2338935,6.07183396 48.7277378,6.07183396 48.4153473,6.25381668 L3.90050072,32.1892577 L10.5300858,36.0512278 L49.7413282,13.2062663 C50.0537187,13.0242836 50.3066367,12.581588 50.3066367,12.2179453 L50.3066367,7.35571557 Z" id="Fill-39" fill="#AEAEAE" mask="url(#mask-15)"></path>
                        </g>
                        <g id="Group-44">
                            <mask id="mask-17" fill="white">
                                <use xlink:href="#path-16"></use>
                            </mask>
                            <g id="Clip-43"></g>
                            <path d="M3.90050072,32.1889673 L5.22680142,32.9614259 L49.7410085,7.02630749 C50.053399,6.84432478 50.053399,6.54940953 49.7410085,6.36774947 L49.5459643,6.25384894 C49.2338935,6.07186623 48.7277378,6.07186623 48.4153473,6.25384894 L3.90050072,32.1889673 Z" id="Fill-42" fill="#FFFFFF" mask="url(#mask-17)"></path>
                        </g>
                    </g>
                    <g id="Group-58" transform="translate(38.698465, 18.178276)">
                        <path d="M24.4234556,3.81226987 L24.4234556,13.2434447 C24.4234556,13.6033105 24.1659873,14.0448911 23.8522383,14.2246637 L6.48444904,24.1595865 C6.47442201,24.166316 6.46116045,24.172725 6.45145687,24.1759295 C5.13920953,24.9187335 3.94761003,25.0148686 3.07622863,24.5688016 C2.81164437,24.4335716 1.79373893,23.8465065 1.54597421,23.6875631 C0.759013953,23.1831743 0.279980601,22.1894577 0.279980601,20.7967803 C0.279980601,17.9245837 2.32064327,14.4111658 4.88626957,12.7983391 L4.88918065,12.7951346 L21.1679049,3.48509004 C21.200897,3.46554257 21.2274201,3.44599509 21.2536198,3.42612717 C21.4816539,3.24635451 21.4515728,2.99448052 21.1679049,2.83073038 L19.0580233,1.62359384 L19.0580233,0.0895979233 L23.8522383,2.83073038 C24.1329952,2.99095557 24.3707328,3.36428025 24.413752,3.70107359 C24.4202211,3.73696403 24.4234556,3.77637942 24.4234556,3.81226987" id="Fill-46" fill="#000000"></path>
                        <path d="M24.4234556,3.81226987 L24.4234556,13.2434447 C24.4234556,13.6033105 24.1659873,14.0448911 23.8522383,14.2246637 L6.48444904,24.1595865 C6.47442201,24.166316 6.46116045,24.172725 6.45145687,24.1759295 C5.13920953,24.9187335 3.94761003,25.0148686 3.07622863,24.5688016 C2.81164437,24.4335716 1.79373893,23.8465065 1.54597421,23.6875631 C0.759013953,23.1831743 0.279980601,22.1894577 0.279980601,20.7967803 C0.279980601,17.9245837 2.32064327,14.4111658 4.88626957,12.7983391 L4.88918065,12.7951346 L21.1679049,3.48509004 C21.200897,3.46554257 21.2274201,3.44599509 21.2536198,3.42612717 C21.4816539,3.24635451 21.4515728,2.99448052 21.1679049,2.83073038 L19.0580233,1.62359384 L19.0580233,0.0895979233 L23.8522383,2.83073038 C24.1329952,2.99095557 24.3707328,3.36428025 24.413752,3.70107359 C24.4202211,3.73696403 24.4234556,3.77637942 24.4234556,3.81226987" id="Fill-48" fill="#000000"></path>
                        <path d="M24.4234556,3.81226987 L24.4234556,13.2434447 C24.4234556,13.6033105 24.1659873,14.0448911 23.8522383,14.2246637 L6.48444904,24.1595865 C6.47442201,24.166316 6.46116045,24.172725 6.45145687,24.1759295 C4.74071589,25.1443305 3.23504387,25.0135868 2.37660058,24.0157043 C1.89789068,23.456198 1.62036832,22.6287951 1.62036832,21.5687453 C1.62036832,18.6016953 3.79979217,14.9543292 6.48444904,13.4168083 L23.0827444,3.92346614 L23.8522383,3.48509004 C24.1329952,3.32166035 24.3674983,3.41971816 24.413752,3.70107359 C24.4202211,3.73696403 24.4234556,3.77637942 24.4234556,3.81226987" id="Fill-50" fill="url(#linearGradient-18)"></path>
                        <path d="M5.64550994,19.2675912 C5.64550994,20.5388178 6.54632553,21.054102 7.65770878,20.4183285 C8.76876858,19.7825549 9.66926072,18.2370228 9.66926072,16.9657962 C9.66926072,15.69489 8.76844513,15.1796058 7.65770878,15.8153794 C6.54632553,16.4508324 5.64550994,17.9963646 5.64550994,19.2675912" id="Fill-52" fill="#2B454E"></path>
                        <polygon id="Fill-54" fill="#2B454E" points="9.73890007 16.0524485 9.14245341 15.7153347 6.23332042 20.5570194 6.91645238 20.9470075"></polygon>
                        <path d="M6.3164154,19.6510741 C6.3164154,20.9223008 7.21690753,21.437585 8.32829079,20.8018114 C9.43935059,20.1663583 10.3401662,18.6205058 10.3398428,17.3495996 C10.3398428,16.078373 9.43902713,15.5630888 8.32829079,16.1988623 C7.21690753,16.8343154 6.3164154,18.380168 6.3164154,19.6510741" id="Fill-56" fill="#000000"></path>
                    </g>
                </g>
                <mask id="mask-20" fill="white">
                    <use xlink:href="#path-19"></use>
                </mask>
                <g id="Path-4"></g>
                <g id="Group-48" mask="url(#mask-20)">
                    <g transform="translate(30.496412, 24.646423) scale(-1, 1) translate(-30.496412, -24.646423) translate(3.618505, -4.553577)">
                        <g id="Group-16">
                            <ellipse id="Oval" fill="#02343C" transform="translate(28.978232, 27.911058) rotate(-30.000000) translate(-28.978232, -27.911058) " cx="28.9782322" cy="27.9110585" rx="13.852557" ry="23.953158"></ellipse>
                            <ellipse id="Oval" stroke="#188291" stroke-width="0.842976461" fill="#000000" transform="translate(24.126625, 30.328670) rotate(-30.000000) translate(-24.126625, -30.328670) " cx="24.1266247" cy="30.3286695" rx="13.852557" ry="23.953158"></ellipse>
                        </g>
                        <g id="Group-48" transform="translate(17.227986, 15.602932)">
                            <polygon id="Shape" fill="#FFFFFF" fill-rule="nonzero" points="6.87268203 0.0069259592 6.73071719 0.57622156 6.73071719 19.5967891 6.87268203 19.8755242 13.3757312 18.6096843"></polygon>
                            <polygon id="Shape" fill="#FFFFFF" fill-rule="nonzero" points="6.73071719 0.0069259592 0.0857031706 10.7042189 6.73071719 19.8755242"></polygon>
                            <polygon id="Shape" fill="#FFFFFF" fill-rule="nonzero" points="6.81151673 22.3809425 6.73071719 22.4595422 6.73071719 28.8056151 6.81151673 29.1475366 13.3757312 21.2000974"></polygon>
                            <polygon id="Shape" fill="#FFFFFF" fill-rule="nonzero" points="6.73071719 29.1475366 6.73071719 22.1417561 0.0857031706 13.2526581"></polygon>
                            <polyline id="Shape" fill="#FFFFFF" fill-rule="nonzero" points="13.3757312 18.603736 6.73071719 10.6035117 6.73071719 19.8755242"></polyline>
                            <polyline id="Shape" fill="#FFFFFF" fill-rule="nonzero" points="0.0857031706 10.6644353 6.73071719 19.8755242 6.73071719 10.6035117"></polyline>
                        </g>
                    </g>
                </g>
            </g>
        </g>
    </g>
</svg>